<svg width="63" height="47" viewBox="0 0 63 47" fill="none" xmlns="http://www.w3.org/2000/svg">
<path d="M4.7569 38.7349C5.00058 39.011 5.13038 39.3569 5.12358 39.7118C5.13601 39.9434 5.0914 40.1745 4.99304 40.3881C4.89469 40.6018 4.74511 40.7924 4.55539 40.9459C4.08201 41.2732 3.49555 41.4333 2.90369 41.3966H0V35.2051H2.84423C3.40566 35.1709 3.96263 35.3163 4.41995 35.6165C4.60363 35.7572 4.74908 35.9351 4.84482 36.1362C4.94055 36.3372 4.98396 36.5559 4.97162 36.7749C4.98831 37.1164 4.87115 37.4522 4.64128 37.7216C4.42059 37.9676 4.1156 38.1382 3.77579 38.2056C4.16101 38.2699 4.50873 38.4575 4.7569 38.7349ZM1.35109 37.8003H2.56674C2.84303 37.819 3.11743 37.7459 3.33974 37.5946C3.43101 37.5188 3.50203 37.4249 3.54728 37.32C3.59254 37.2151 3.61082 37.1021 3.60071 36.9896C3.60929 36.8776 3.59063 36.7653 3.54607 36.6607C3.50151 36.5561 3.43217 36.4618 3.34304 36.3847C3.11408 36.2291 2.83115 36.1549 2.54692 36.176H1.35109V37.8003ZM3.45866 40.1746C3.55623 40.0971 3.63292 40 3.68277 39.8908C3.73262 39.7817 3.75428 39.6635 3.74606 39.5455C3.7535 39.4261 3.73085 39.3067 3.67988 39.1965C3.6289 39.0864 3.55095 38.9885 3.45205 38.9103C3.21421 38.7488 2.9217 38.6696 2.6262 38.6865H1.35109V40.3894H2.64272C2.93345 40.4047 3.22122 40.329 3.45866 40.1746Z" fill="#AFB1B8"/>
<path d="M10.5709 41.3973L8.98857 38.9776H8.39396V41.3973H7.03296V35.2058H9.60961C10.2591 35.1643 10.9012 35.3527 11.4034 35.7321C11.7635 36.0682 11.9808 36.511 12.0159 36.9807C12.051 37.4504 11.9018 37.9162 11.595 38.294C11.2771 38.6275 10.8428 38.8498 10.3661 38.9231L12.0508 41.3973H10.5709ZM8.39396 38.1337H9.50721C10.2802 38.1337 10.6667 37.8212 10.6667 37.1961C10.6746 37.0684 10.6534 36.9407 10.6045 36.8209C10.5556 36.7011 10.48 36.592 10.3826 36.5004C10.1383 36.3144 9.82374 36.2242 9.50721 36.2494H8.38075L8.39396 38.1337Z" fill="#AFB1B8"/>
<path d="M18.0101 40.1502H15.298L14.819 41.3963H13.392L15.8827 35.2744H17.4254L19.9063 41.3963H18.4792L18.0101 40.1502ZM17.6467 39.2125L16.6557 36.5992L15.6647 39.2125H17.6467Z" fill="#AFB1B8"/>
<path d="M27.3225 41.3965H25.9714L22.9421 37.1862V41.3965H21.5944V35.2051H22.9421L25.9714 39.4396V35.2051H27.3225V41.3965Z" fill="#AFB1B8"/>
<path d="M35.0326 39.9148C34.7532 40.3822 34.3276 40.7625 33.8103 41.0067C33.2222 41.2786 32.5695 41.4127 31.9109 41.3968H29.506V35.2054H31.9109C32.5684 35.1896 33.2202 35.3204 33.8103 35.5865C34.3275 35.8251 34.7536 36.2016 35.0326 36.6663C35.3107 37.1698 35.4556 37.7262 35.4556 38.2905C35.4556 38.8548 35.3107 39.4112 35.0326 39.9148ZM33.4866 39.7665C33.8722 39.3552 34.0842 38.8311 34.0842 38.289C34.0842 37.7469 33.8722 37.2228 33.4866 36.8115C33.0205 36.4389 32.4127 36.2498 31.7952 36.2852H30.8571V40.2928H31.7952C32.4127 40.3282 33.0205 40.1391 33.4866 39.7665Z" fill="#AFB1B8"/>
<path d="M18.8558 0.766602C18.8558 0.766602 36.2945 6.79474 35.9245 15.5178V30.2721C35.9245 30.2721 18.4991 24.2409 18.8624 15.5178L18.8558 0.766602Z" fill="#AFB1B8"/>
<path d="M51.4603 26.8181C54.7538 24.7428 58.5633 23.4574 62.5399 23.0796V18.4609C57.9579 20.0779 54.0709 23.0098 51.4603 26.8181Z" fill="#AFB1B8"/>
<path d="M49.4816 28.2094C52.1773 23.2395 56.8505 19.4045 62.54 17.493V4.18457C62.54 4.18457 37.705 12.7716 38.2303 25.1938V46.2C38.2303 46.2 39.3369 45.8159 41.0778 45.096C41.0778 44.4246 41.0778 43.747 41.1571 43.0665C41.6711 37.2995 44.6654 31.9554 49.4816 28.2094Z" fill="#AFB1B8"/>
<path d="M47.1197 36.013C47.2502 34.5561 47.5413 33.1151 47.9885 31.7119C44.9896 34.947 43.1734 38.9613 42.7956 43.1905C42.7592 43.5897 42.7394 43.989 42.7295 44.4003C44.14 43.7803 45.7818 43.006 47.5062 42.0956C47.0662 40.0947 46.936 38.0471 47.1197 36.013Z" fill="#AFB1B8"/>
<path d="M48.1074 36.0886C47.9421 37.9289 48.0454 39.7812 48.4146 41.5965C55.1998 37.8792 62.8241 32.1354 62.5301 25.1938V24.5889C57.6823 25.0855 53.1468 27.0259 49.6204 30.1119C48.7947 32.0243 48.2848 34.0386 48.1074 36.0886Z" fill="#AFB1B8"/>
</svg>
