<svg width="94" height="45" viewBox="0 0 94 45" fill="none" xmlns="http://www.w3.org/2000/svg">
<path d="M47.425 21.4081C46.9819 20.8183 46.7699 20.1212 46.8203 19.4195V16.5363C46.8203 15.6525 47.0207 14.9808 47.4216 14.5213C47.8224 14.0618 48.511 13.833 49.4871 13.835C50.4044 13.835 51.0555 14.0305 51.4405 14.4216C51.8605 14.9206 52.0648 15.5307 52.018 16.1462V16.8238H50.3772V16.1374C50.383 15.9128 50.3671 15.6881 50.3296 15.4657C50.306 15.3137 50.2234 15.1731 50.0952 15.0669C49.9267 14.9523 49.7145 14.8968 49.5007 14.9114C49.2759 14.8969 49.0529 14.9555 48.8756 15.0757C48.7327 15.1933 48.6374 15.3476 48.6038 15.5156C48.5567 15.7509 48.5351 15.9896 48.5393 16.2283V19.7275C48.5134 20.065 48.5858 20.4028 48.7499 20.71C48.8315 20.814 48.9448 20.8964 49.0774 20.9482C49.2099 20.9999 49.3564 21.019 49.5007 21.0034C49.7109 21.0183 49.9195 20.9614 50.0816 20.845C50.2153 20.7304 50.3013 20.5809 50.3262 20.4197C50.3645 20.1875 50.3816 19.9531 50.3772 19.7187V19.0089H52.018V19.6571C52.0641 20.2986 51.8648 20.9355 51.4507 21.4697C51.0736 21.8979 50.4315 22.112 49.4871 22.112C48.5427 22.112 47.8292 21.8833 47.425 21.4081Z" fill="#AFB1B8"/>
<path d="M54.2569 21.4374C53.8425 20.9887 53.6353 20.3346 53.6353 19.4694V16.4366C53.6353 15.5801 53.8425 14.9319 54.2569 14.492C54.6714 14.052 55.3644 13.833 56.336 13.835C57.3008 13.835 57.9904 14.054 58.4049 14.492C58.8193 14.9319 59.03 15.5801 59.03 16.4366V19.4694C59.03 20.3258 58.8193 20.9828 58.3981 21.4345C57.9768 21.8862 57.2906 22.112 56.336 22.112C55.3814 22.112 54.6748 21.8833 54.2569 21.4374ZM57.1004 20.71C57.2488 20.4289 57.3164 20.121 57.2974 19.8125V16.0993C57.3165 15.7968 57.25 15.4948 57.1038 15.2194C57.0205 15.1132 56.9044 15.0295 56.7686 14.9776C56.6329 14.9257 56.483 14.9079 56.336 14.9261C56.1886 14.9083 56.0384 14.9264 55.9022 14.9782C55.766 15.03 55.6492 15.1135 55.5648 15.2194C55.4155 15.494 55.3477 15.7964 55.3678 16.0993V19.8301C55.3472 20.1387 55.4148 20.447 55.5648 20.7276C55.6605 20.8223 55.7785 20.8981 55.9109 20.95C56.0434 21.002 56.1872 21.0289 56.3326 21.0289C56.4781 21.0289 56.6219 21.002 56.7543 20.95C56.8867 20.8981 57.0047 20.8223 57.1004 20.7276V20.71Z" fill="#AFB1B8"/>
<path d="M61.0035 13.9238H62.7701L64.0984 19.5195L65.4573 13.9238H67.1763L67.3496 22.0005H66.079L65.9431 16.3873L64.6318 22.0005H63.6126L62.2537 16.3668L62.128 22.0005H60.8439L61.0035 13.9238Z" fill="#AFB1B8"/>
<path d="M69.3303 13.9238H72.082C73.6673 13.9238 74.46 14.6883 74.46 16.2172C74.46 17.6816 73.6254 18.4128 71.9563 18.4109H71.0187V22.0005H69.3201L69.3303 13.9238ZM71.6811 17.3756C71.8489 17.394 72.0194 17.3807 72.1807 17.3367C72.342 17.2926 72.4903 17.2189 72.6153 17.1205C72.8101 16.8477 72.896 16.5273 72.8599 16.2084C72.8688 15.962 72.8414 15.7157 72.7784 15.4752C72.7542 15.3949 72.7117 15.3196 72.6533 15.2536C72.595 15.1877 72.522 15.1324 72.4387 15.0911C72.2029 14.9934 71.9422 14.949 71.6811 14.962H71.0221V17.3756H71.6811Z" fill="#AFB1B8"/>
<path d="M76.9094 13.9238H78.7337L80.6056 22.0005H79.0225L78.6522 20.1383H77.0249L76.6445 22.0005H75.0376L76.9094 13.9238ZM78.4687 19.2027L77.8335 15.8125L77.1982 19.2027H78.4687Z" fill="#AFB1B8"/>
<path d="M82.1173 13.9238H83.3063L85.5825 18.5311V13.9238H86.9923V22.0005H85.861L83.5713 17.1909V22.0005H82.1139L82.1173 13.9238Z" fill="#AFB1B8"/>
<path d="M90.2945 18.9204L88.4022 13.9346H89.9955L91.1506 17.1373L92.2343 13.9346H93.7936L91.9251 18.9204V22H90.2945V18.9204Z" fill="#AFB1B8"/>
<path d="M50.0477 25.5312V25.9536H48.6617V29.2355H48.0807V25.9536H46.6879V25.5312H50.0477Z" fill="#AFB1B8"/>
<path d="M54.3927 29.2363H53.9442C53.8987 29.2388 53.8538 29.2262 53.8185 29.2011C53.7846 29.1796 53.7587 29.1501 53.7438 29.1161L53.3429 28.2362H51.4201L51.0192 29.1161C51.0078 29.1529 50.9869 29.187 50.958 29.2158C50.9225 29.2403 50.8778 29.2529 50.8324 29.251H50.3839L52.0825 25.5469H52.6737L54.3927 29.2363ZM51.5797 27.8608H53.1833L52.5038 26.3534C52.4537 26.2394 52.4117 26.1228 52.3781 26.0044C52.3543 26.0748 52.3339 26.1422 52.3136 26.2009L52.2524 26.3563L51.5797 27.8608Z" fill="#AFB1B8"/>
<path d="M57.3212 28.8724C57.4275 28.8772 57.5341 28.8772 57.6405 28.8724C57.7323 28.8642 57.8232 28.8495 57.9123 28.8284C57.9955 28.8107 58.0772 28.7882 58.1569 28.7609C58.2316 28.7345 58.3064 28.7022 58.3845 28.67V27.8369H57.705C57.6882 27.8378 57.6714 27.8356 57.6556 27.8305C57.6399 27.8255 57.6255 27.8177 57.6133 27.8076C57.6022 27.7993 57.5933 27.7889 57.5875 27.7772C57.5816 27.7655 57.5788 27.7529 57.5794 27.7401V27.4556H58.8975V28.8753C58.7899 28.9417 58.6763 29.0006 58.5577 29.0513C58.4366 29.1029 58.3104 29.1451 58.1807 29.1774C58.0417 29.2127 57.8997 29.2382 57.756 29.2537C57.5913 29.2695 57.4257 29.2773 57.26 29.2771C56.967 29.2793 56.6763 29.2325 56.4039 29.1393C56.1496 29.051 55.9185 28.9193 55.7245 28.7521C55.5353 28.5832 55.3864 28.3839 55.2862 28.1655C55.1792 27.9199 55.1261 27.6593 55.13 27.397C55.1264 27.133 55.1782 26.8706 55.2828 26.6226C55.3805 26.4031 55.5297 26.2033 55.7211 26.036C55.9149 25.8693 56.1461 25.7386 56.4005 25.6517C56.6914 25.5572 57.0002 25.5105 57.311 25.5138C57.4691 25.5137 57.627 25.5245 57.7832 25.5461C57.9213 25.5655 58.0567 25.597 58.1875 25.64C58.3063 25.6785 58.4202 25.7277 58.5272 25.7866C58.6313 25.8445 58.7301 25.9092 58.8227 25.9802L58.6597 26.209C58.6469 26.2299 58.6279 26.2475 58.6046 26.2598C58.5813 26.2722 58.5545 26.279 58.5272 26.2794C58.4896 26.2784 58.4531 26.2682 58.4219 26.2501C58.3709 26.2266 58.3165 26.1973 58.2554 26.1621C58.1832 26.123 58.107 26.0896 58.0278 26.0624C57.9265 26.0273 57.822 25.9998 57.7152 25.9802C57.5729 25.9576 57.4285 25.9468 57.2838 25.948C57.0597 25.9458 56.8371 25.9807 56.6281 26.0506C56.4391 26.1161 56.2687 26.2162 56.1287 26.3439C55.9879 26.4771 55.8804 26.6339 55.8128 26.8045C55.661 27.2056 55.661 27.6381 55.8128 28.0393C55.8871 28.2135 56.0029 28.3724 56.1525 28.5057C56.2918 28.6328 56.4609 28.7328 56.6485 28.799C56.8645 28.8631 57.0935 28.888 57.3212 28.8724Z" fill="#AFB1B8"/>
<path d="M62.7363 28.8132H64.5912V29.2355H62.1689V25.5312H62.7499L62.7363 28.8132Z" fill="#AFB1B8"/>
<path d="M66.5208 29.2355H65.9398V25.5312H66.5208V29.2355Z" fill="#AFB1B8"/>
<path d="M68.6814 25.5489C68.7159 25.5659 68.746 25.5888 68.7697 25.6163L71.253 28.4086C71.2497 28.3647 71.2497 28.3206 71.253 28.2767C71.253 28.2356 71.253 28.1945 71.253 28.1564V25.5166H71.7592V29.2358H71.4671C71.4238 29.2388 71.3804 29.2317 71.3414 29.2153C71.3061 29.1968 71.275 29.1729 71.2496 29.1449L68.7697 26.3555C68.7697 26.3995 68.7697 26.4405 68.7697 26.4816C68.7697 26.5227 68.7697 26.5608 68.7697 26.596V29.2358H68.2839V25.5313H68.5863C68.6191 25.5313 68.6515 25.5373 68.6814 25.5489Z" fill="#AFB1B8"/>
<path d="M76.0364 25.5312V25.9389H73.9777V27.162H75.6457V27.555H73.9777V28.8191H76.0364V29.2268H73.3798V25.5312H76.0364Z" fill="#AFB1B8"/>
<path d="M15.1618 2.65538L40.9568 8.9787V31.1367L15.1618 24.8163V2.65538ZM13.5073 0.766602V25.8927L42.6079 33.0284V7.90526L13.5073 0.766602Z" fill="#AFB1B8"/>
<path d="M29.1039 44.6919L0 37.5502V12.4268L29.1039 19.5655V44.6919Z" fill="#AFB1B8"/>
<path d="M13.9897 2.37086L39.4484 8.61488L28.6215 17.9648L3.1594 11.7178L13.9897 2.37086ZM13.5073 0.766602L0 12.4276L29.1039 19.5661L42.6078 7.90513L13.5073 0.766602Z" fill="#AFB1B8"/>
<path d="M30.7415 43.2786L42.6078 33.0314L30.7415 30.1191V43.2786Z" fill="#AFB1B8"/>
</svg>
