<svg width="45" height="42" viewBox="0 0 45 42" fill="none" xmlns="http://www.w3.org/2000/svg">
<path d="M7.40628 41.1018C7.42219 41.1022 7.43786 41.1053 7.45238 41.111C7.46689 41.1167 7.47995 41.1248 7.4908 41.135L7.70892 41.3435C7.53961 41.5122 7.33035 41.6472 7.09546 41.7391C6.82039 41.8395 6.52394 41.8879 6.22572 41.8813C5.94548 41.8863 5.66705 41.8411 5.40777 41.7486C5.17389 41.6636 4.96376 41.536 4.79159 41.3743C4.61588 41.2065 4.48054 41.01 4.39353 40.7962C4.29824 40.5578 4.25119 40.3069 4.25448 40.0546C4.25061 39.8007 4.30147 39.5483 4.40443 39.3107C4.49968 39.0955 4.64335 38.8989 4.82704 38.7326C5.01321 38.5694 5.23592 38.4412 5.48139 38.3558C5.74992 38.2654 6.03588 38.2203 6.32387 38.2232C6.59138 38.2175 6.85747 38.2586 7.10637 38.344C7.32231 38.4254 7.52058 38.5384 7.69256 38.6781L7.50988 38.9008C7.49726 38.9165 7.48158 38.9301 7.46353 38.941C7.44198 38.9539 7.41593 38.9598 7.38992 38.9576C7.36162 38.9559 7.33434 38.9478 7.31085 38.9339L7.2127 38.8747L7.07637 38.7989C7.01753 38.7707 6.95649 38.7462 6.8937 38.7255C6.81283 38.7003 6.72989 38.6805 6.64559 38.6662C6.5386 38.6491 6.42992 38.6412 6.32114 38.6425C6.11376 38.6403 5.90796 38.6741 5.71587 38.742C5.53672 38.805 5.37501 38.9003 5.24146 39.0216C5.10551 39.1507 5.00074 39.3021 4.93337 39.467C4.85658 39.6556 4.81874 39.8545 4.82158 40.0546C4.81831 40.2578 4.85615 40.4598 4.93337 40.6516C4.9999 40.8151 5.10272 40.9656 5.23601 41.0947C5.36088 41.215 5.51567 41.309 5.6886 41.3695C5.86657 41.4336 6.0576 41.4659 6.25025 41.4643C6.36154 41.4658 6.47278 41.4594 6.58288 41.4453C6.76267 41.4263 6.93513 41.372 7.08728 41.2866C7.16359 41.2429 7.23563 41.1937 7.30267 41.1397C7.3307 41.1165 7.36756 41.103 7.40628 41.1018Z" fill="#AFB1B8"/>
<path d="M13.7044 40.0537C13.7078 40.3051 13.6579 40.5548 13.5572 40.7905C13.4684 41.0042 13.3284 41.1992 13.1465 41.3625C12.9646 41.5259 12.745 41.6539 12.5021 41.7381C11.9683 41.915 11.3782 41.915 10.8444 41.7381C10.603 41.6526 10.3848 41.5243 10.2037 41.3614C10.0219 41.1951 9.88095 40.9984 9.78927 40.7834C9.59287 40.3062 9.59287 39.7846 9.78927 39.3074C9.88228 39.0922 10.0231 38.895 10.2037 38.727C10.3864 38.5693 10.6045 38.4459 10.8444 38.3646C11.3775 38.1845 11.969 38.1845 12.5021 38.3646C12.7443 38.45 12.9634 38.5783 13.1455 38.7412C13.325 38.9059 13.465 39.1 13.5572 39.3122C13.6582 39.5494 13.7081 39.8008 13.7044 40.0537ZM13.1319 40.0537C13.1362 39.8526 13.1011 39.6523 13.0283 39.4614C12.9672 39.2979 12.8679 39.1471 12.7366 39.0184C12.6087 38.8967 12.4513 38.8012 12.2758 38.7389C11.8879 38.6093 11.4586 38.6093 11.0707 38.7389C10.8952 38.8012 10.7378 38.8967 10.6099 39.0184C10.4768 39.1463 10.3764 39.2973 10.3155 39.4614C10.1768 39.8471 10.1768 40.2603 10.3155 40.646C10.377 40.8098 10.4773 40.9607 10.6099 41.089C10.7379 41.2099 10.8953 41.3046 11.0707 41.3661C11.4593 41.4924 11.8872 41.4924 12.2758 41.3661C12.4512 41.3046 12.6086 41.2099 12.7366 41.089C12.8673 40.96 12.9665 40.8093 13.0283 40.646C13.1015 40.4551 13.1365 40.2548 13.1319 40.0537Z" fill="#AFB1B8"/>
<path d="M18.0013 40.6746L18.0586 40.8072C18.0804 40.7599 18.0995 40.7172 18.1213 40.6746C18.1421 40.63 18.1657 40.5865 18.1922 40.5443L19.5854 38.3437C19.6127 38.3058 19.6372 38.2821 19.6645 38.275C19.7015 38.2652 19.7403 38.2612 19.779 38.2632H20.1907V41.8424H19.7026V39.2107C19.7026 39.1775 19.7026 39.1396 19.7026 39.0994C19.7 39.0583 19.7 39.0172 19.7026 38.9762L18.3012 41.2076C18.2834 41.241 18.255 41.2692 18.2192 41.289C18.1834 41.3087 18.1418 41.3191 18.0995 41.3189H18.0204C17.9779 41.3194 17.9362 41.3091 17.9004 41.2894C17.8646 41.2696 17.8362 41.2412 17.8186 41.2076L16.3763 38.962C16.3763 39.0046 16.3763 39.0472 16.3763 39.0899C16.3763 39.1325 16.3763 39.1704 16.3763 39.2036V41.8353H15.9047V38.2632H16.3164C16.355 38.2612 16.3938 38.2652 16.4309 38.275C16.4647 38.2896 16.4916 38.3139 16.5072 38.3437L17.9304 40.5467C17.9584 40.5874 17.9821 40.6302 18.0013 40.6746Z" fill="#AFB1B8"/>
<path d="M23.2444 40.4967V41.8374H22.6991V38.2631H23.9151C24.1446 38.2592 24.3735 38.2856 24.594 38.3412C24.7705 38.3847 24.9341 38.4606 25.0739 38.5639C25.195 38.6607 25.2883 38.7807 25.3465 38.9145C25.4109 39.0603 25.4423 39.2155 25.4392 39.3716C25.4416 39.5284 25.4073 39.6839 25.3383 39.8288C25.2728 39.9659 25.1721 40.0882 25.0439 40.1864C24.904 40.294 24.7395 40.3747 24.5613 40.4233C24.349 40.4822 24.127 40.5103 23.9042 40.5062L23.2444 40.4967ZM23.2444 40.113H23.9042C24.0475 40.1146 24.1902 40.0962 24.3268 40.0585C24.4395 40.0256 24.5433 39.9732 24.6322 39.9046C24.7141 39.839 24.7775 39.758 24.8176 39.6677C24.8622 39.5722 24.8844 39.4699 24.883 39.3669C24.8893 39.2675 24.8707 39.1681 24.8283 39.0757C24.7859 38.9832 24.7208 38.8999 24.6376 38.8315C24.4293 38.6902 24.1677 38.6218 23.9042 38.6397H23.2444V40.113Z" fill="#AFB1B8"/>
<path d="M30.5731 41.8423H30.1423C30.0991 41.8437 30.0566 41.832 30.0223 41.8091C29.9914 41.7868 29.9671 41.7584 29.9514 41.7262L29.5806 40.8615H27.7185L27.334 41.7262C27.3199 41.7578 27.2964 41.7856 27.2659 41.8067C27.2312 41.831 27.1877 41.8436 27.1432 41.8423H26.7124L28.3483 38.2627H28.9154L30.5731 41.8423ZM27.8739 40.5133H29.4116L28.7627 39.0563C28.7131 38.9467 28.6721 38.8343 28.64 38.7199L28.5773 38.9071C28.5582 38.9639 28.5364 39.016 28.5173 39.0587L27.8739 40.5133Z" fill="#AFB1B8"/>
<path d="M32.9288 38.2794C32.9614 38.2949 32.9894 38.3168 33.0106 38.3433L35.3962 41.0416C35.3962 40.9989 35.3962 40.9563 35.3962 40.916C35.3962 40.8758 35.3962 40.8355 35.3962 40.7976V38.2628H35.8843V41.8423H35.6116C35.5729 41.8433 35.5345 41.836 35.4998 41.821C35.4662 41.8039 35.4365 41.7814 35.4126 41.7546L33.0297 39.0587C33.0323 39.0998 33.0323 39.1409 33.0297 39.1819C33.0297 39.2222 33.0297 39.2577 33.0297 39.2909V41.8423H32.5416V38.2628H32.8306C32.8644 38.262 32.8979 38.2676 32.9288 38.2794Z" fill="#AFB1B8"/>
<path d="M39.9031 40.4193V41.8407H39.3578V40.4193L37.8501 38.2635H38.3381C38.3802 38.2614 38.4218 38.2723 38.4554 38.2943C38.4851 38.3173 38.51 38.3446 38.529 38.3749L39.4724 39.7655C39.5105 39.8247 39.5432 39.8792 39.5705 39.9313C39.5978 39.9834 39.6196 40.0332 39.6387 40.0829L39.7096 39.9289C39.736 39.8726 39.767 39.818 39.8023 39.7655L40.732 38.3654C40.7516 38.3375 40.7754 38.312 40.8029 38.2896C40.8352 38.265 40.8772 38.2523 40.9201 38.2541H41.4136L39.9031 40.4193Z" fill="#AFB1B8"/>
<path d="M17.7314 32.2563C17.9686 32.2823 18.2086 32.3036 18.4512 32.3226C22.1301 30.8927 25.2422 28.5525 27.3987 25.5943C29.5552 22.6362 30.6603 19.1914 30.5759 15.6905L26.5216 12.168C27.346 15.8953 26.9604 19.7483 25.408 23.2961C23.8555 26.8438 21.1976 29.9462 17.7314 32.2563Z" fill="#AFB1B8"/>
<path d="M16.2837 32.0929L16.3928 32.1118C20.0966 29.81 22.9205 26.5957 24.4993 22.8845C26.078 19.1733 26.3389 15.1359 25.2483 11.2945L19.4737 6.27734C21.8094 10.4014 22.7495 15.0168 22.1848 19.5868C21.6201 24.1568 19.5737 28.4936 16.2837 32.0929Z" fill="#AFB1B8"/>
<path d="M35.868 19.8271C34.8869 23.6737 32.5042 27.1429 29.0736 29.7195C28.0717 30.4761 26.991 31.1502 25.8455 31.733C28.6389 31.0196 31.2065 29.7584 33.3503 28.0466C35.494 26.3347 37.1567 24.218 38.21 21.8596L35.868 19.8271Z" fill="#AFB1B8"/>
<path d="M34.949 19.2604L31.6146 16.3633C31.5508 19.6664 30.47 22.8944 28.4845 25.7117C26.499 28.5291 23.6813 30.833 20.3242 32.3841H20.3406C21.0887 32.3838 21.8362 32.3451 22.579 32.268C25.7164 31.1554 28.488 29.3853 30.6464 27.1156C32.8049 24.8459 34.283 22.1472 34.949 19.2604Z" fill="#AFB1B8"/>
<path d="M16.7663 4.16115L12.7883 0.700195C9.23222 1.89415 6.1738 3.99308 4.01337 6.72227C1.85294 9.45146 0.69115 12.6838 0.680054 15.9961H0.680054C0.693382 19.6562 2.11126 23.2079 4.70929 26.089C7.30731 28.9702 10.9371 31.0162 15.0241 31.9033C18.6725 28.0412 20.8086 23.269 21.1219 18.28C21.4352 13.291 19.9094 8.34519 16.7663 4.16115Z" fill="#AFB1B8"/>
<path d="M44.1401 18.7277C44.1257 14.3852 42.1339 10.2242 38.5997 7.15355C35.0656 4.08294 30.2764 2.35235 25.2784 2.33985C22.9688 2.33777 20.6789 2.70806 18.5249 3.4319L42.8805 24.593C43.7144 22.7225 44.1415 20.7337 44.1401 18.7277Z" fill="#AFB1B8"/>
</svg>
