<svg xmlns="http://www.w3.org/2000/svg">
<!-- manchik -->
    <symbol viewBox="0 0 70 70" fill="none" id="manchik">
        <path d="M69.9432 9.89619C69.8055 9.47495 69.4416 9.16706 69.0017 9.1028L64.8227 8.49494L62.9525 4.7079C62.5606 3.90987 61.2527 3.90987 60.8607 4.7079L58.9905 8.49494L54.8114 9.10293C54.3715 9.16706 54.0076 9.47399 53.8687 9.89632C53.7322 10.3187 53.8453 10.783 54.1638 11.0922L57.1891 14.0405L56.4751 18.2032C56.4005 18.6407 56.5801 19.0829 56.9383 19.3443C57.3012 19.608 57.7748 19.6406 58.168 19.4329L61.9061 17.467L65.6441 19.4329C65.8145 19.5227 66.0024 19.567 66.1879 19.567C66.4293 19.567 66.6709 19.4924 66.874 19.3441C67.2333 19.0829 67.4129 18.6406 67.3372 18.2031L66.6232 14.0403L69.6484 11.0921C69.9653 10.7817 70.0798 10.3185 69.9432 9.89619ZM64.5556 12.7989C64.2815 13.0661 64.1554 13.4534 64.2207 13.8314L64.6384 16.2686L62.4498 15.1182C62.2795 15.0284 62.0928 14.9841 61.9061 14.9841C61.7194 14.9841 61.5339 15.0284 61.3623 15.1182L59.1736 16.2686L59.5912 13.8314C59.6566 13.4534 59.5305 13.0673 59.2564 12.7989L57.4842 11.0723L59.932 10.7164C60.3123 10.6616 60.6402 10.4224 60.8105 10.0782L61.9048 7.86151L62.9991 10.0782C63.1695 10.4223 63.4974 10.6616 63.8777 10.7164L66.3254 11.0723L64.5556 12.7989Z" fill="#2196F3"/>
        <path d="M57.1669 44.8921H54.8335V47.2255H57.1669V44.8921Z" fill="#2196F3"/>
        <path d="M57.1669 49.5591H54.8335V51.8925H57.1669V49.5591Z" fill="#2196F3"/>
        <path d="M59.5004 47.2256H57.167V49.559H59.5004V47.2256Z" fill="#2196F3"/>
        <path d="M54.8337 47.2256H52.5002V49.559H54.8337V47.2256Z" fill="#2196F3"/>
        <path d="M49.0003 57.7261H46.6669V60.0595H49.0003V57.7261Z" fill="#2196F3"/>
        <path d="M49.0003 62.3926H46.6669V64.726H49.0003V62.3926Z" fill="#2196F3"/>
        <path d="M51.3337 60.0591H49.0002V62.3925H51.3337V60.0591Z" fill="#2196F3"/>
        <path d="M46.6668 60.0591H44.3334V62.3925H46.6668V60.0591Z" fill="#2196F3"/>
        <path d="M35 53.0591H32.6666V55.3925H35V53.0591Z" fill="#2196F3"/>
        <path d="M35 57.7261H32.6666V60.0595H35V57.7261Z" fill="#2196F3"/>
        <path d="M37.3334 55.3926H35V57.726H37.3334V55.3926Z" fill="#2196F3"/>
        <path d="M32.6665 55.3926H30.3331V57.726H32.6665V55.3926Z" fill="#2196F3"/>
        <path d="M12.8331 13.3916H10.4996V15.725H12.8331V13.3916Z" fill="#2196F3"/>
        <path d="M12.8331 18.0586H10.4996V20.392H12.8331V18.0586Z" fill="#2196F3"/>
        <path d="M15.1663 15.7251H12.8329V18.0585H15.1663V15.7251Z" fill="#2196F3"/>
        <path d="M10.4996 15.7251H8.16614V18.0585H10.4996V15.7251Z" fill="#2196F3"/>
        <path d="M54.0635 30.974C53.4347 30.1258 52.5119 29.5798 51.4642 29.4327C50.4118 29.2834 49.3734 29.5599 48.5334 30.2028L45.7952 32.3015L45.794 32.3028L41.6428 35.4027L38.6724 34.2196C43.9691 31.8431 47.6711 26.5452 47.6711 20.3944C47.6711 12.0316 40.8401 5.22754 32.4436 5.22754C24.047 5.22754 17.2161 12.0316 17.2161 20.3944C17.2161 23.4255 18.1226 26.2441 19.6662 28.616L13.6204 28.5635C13.6168 28.5635 13.6134 28.5635 13.6099 28.5635C13.5911 28.5635 13.5761 28.5728 13.5586 28.574C13.4431 28.5786 13.3298 28.602 13.2191 28.6417C13.1911 28.6522 13.162 28.6581 13.1352 28.6708C13.1212 28.6767 13.1071 28.6778 13.0932 28.6847L6.02075 32.1766C6.01952 32.1766 6.01843 32.1766 6.01843 32.1777L1.8766 34.1694C1.83107 34.1893 1.78445 34.2161 1.73892 34.2464C0.0880191 35.3454 -0.474314 37.5038 0.429958 39.2677C0.911763 40.2058 1.73195 40.8965 2.73999 41.2126C3.12856 41.3339 3.52518 41.3935 3.91949 41.3935C4.55305 41.3935 5.18074 41.2383 5.75578 40.9315L8.79154 39.3168L13.7441 36.7595L16.7122 36.742L4.80844 48.5886C4.80735 48.5898 4.80612 48.5898 4.80489 48.5909L1.87647 51.5076C1.18466 52.1959 0.8043 53.1094 0.8043 54.0836C0.8043 55.0567 1.18466 55.9724 1.87647 56.6621C2.587 57.369 3.52149 57.7237 4.45598 57.7237C5.3917 57.7237 6.32495 57.369 7.03782 56.6621L9.91251 53.799L13.7206 50.9557L15.6912 52.9181L11.8375 56.7553C11.8364 56.7565 11.8352 56.7565 11.834 56.7576L8.90556 59.6743C8.21375 60.3627 7.8334 61.2761 7.8334 62.2504C7.8334 63.2234 8.21375 64.1392 8.90556 64.8288C9.6161 65.5358 10.5518 65.8904 11.4863 65.8904C12.4208 65.8904 13.3565 65.5358 14.0681 64.8288L16.9977 61.9121L21.6842 57.2455C21.6854 57.2442 21.6854 57.2431 21.6865 57.2419L23.8951 55.0544L23.8869 55.0462C23.9008 55.0322 23.9207 55.0274 23.9347 55.0124L35.2353 42.635L42.8281 43.7154C42.8829 43.7236 42.9377 43.727 42.9925 43.727C43.1338 43.727 43.2702 43.6933 43.402 43.6431C43.4406 43.6292 43.4743 43.6104 43.5106 43.5918C43.5526 43.5708 43.5968 43.5591 43.6366 43.5323L50.6659 38.8657C50.6916 38.8482 50.7055 38.8201 50.73 38.8015C50.758 38.7794 50.793 38.7701 50.8186 38.7455L53.5999 36.1403C55.0471 34.7843 55.2466 32.563 54.0635 30.974ZM4.66024 38.8724C4.28111 39.0754 3.85058 39.1161 3.43878 38.9856C3.03039 38.8584 2.69912 38.5795 2.50538 38.2027C2.15305 37.5166 2.35718 36.6813 2.97433 36.2298L5.84793 34.8473L6.53974 36.8691L6.83027 37.7184L4.66024 38.8724ZM12.3102 34.8742L8.92333 36.6243L8.36456 34.9909L7.96328 33.8171L12.3967 31.6283L12.3102 34.8742ZM45.3402 20.3921C45.3402 22.401 44.8607 24.2959 44.03 25.9909L34.8832 21.8364C34.7875 20.5822 34.1366 19.4844 33.1589 18.8006L36.3614 8.16868C41.5626 9.82314 45.3402 14.6754 45.3402 20.3921ZM19.5519 20.3921C19.5519 13.3161 25.3363 7.55849 32.446 7.55849C32.9991 7.55849 33.5403 7.60511 34.0759 7.67279L30.9433 18.0715C30.9014 18.0703 30.8617 18.0587 30.8185 18.0587C28.5597 18.0587 26.7222 19.8903 26.7222 22.1421C26.7222 24.3938 28.5597 26.2255 30.8185 26.2255C32.3375 26.2255 33.65 25.3868 34.3582 24.1593L42.8073 27.9977C40.4564 31.1617 36.6938 33.2256 32.4459 33.2256C25.3363 33.2256 19.5519 27.4681 19.5519 20.3921ZM32.5814 22.1421C32.5814 23.1069 31.7903 23.8921 30.8185 23.8921C29.8467 23.8921 29.0556 23.1069 29.0556 22.1421C29.0556 21.1773 29.8467 20.3921 30.8185 20.3921C31.7903 20.3921 32.5814 21.1773 32.5814 22.1421ZM5.39183 55.0076C4.87503 55.5198 4.03843 55.5187 3.52286 55.0088C3.2743 54.7603 3.13785 54.4326 3.13785 54.0836C3.13785 53.736 3.2743 53.4081 3.52286 53.162L5.6274 51.0654L7.48941 52.9193L5.39183 55.0076ZM12.4222 63.1745C11.9054 63.6866 11.0677 63.6879 10.552 63.1757C10.3034 62.9272 10.1669 62.5994 10.1669 62.2505C10.1669 61.9028 10.3034 61.575 10.552 61.3289L12.6579 59.2312L13.5388 60.1074L14.5211 61.0851L12.4222 63.1745ZM20.0383 55.5863C20.0371 55.5874 20.036 55.5874 20.0348 55.5887L16.1742 59.4387L15.2933 58.5625L14.311 57.5848L18.168 53.7453C18.168 53.7453 18.168 53.7453 18.168 53.7442C18.1692 53.7429 18.1703 53.7429 18.1715 53.7418C18.259 53.6543 18.3139 53.5493 18.3676 53.4456C18.3828 53.4152 18.4119 53.3895 18.4248 53.3581C18.461 53.2682 18.4667 53.1714 18.4808 53.0768C18.4878 53.0231 18.5112 52.9731 18.5112 52.9181C18.5112 52.8399 18.4831 52.7642 18.4669 52.687C18.4529 52.617 18.4529 52.5458 18.426 52.4783C18.3817 52.3686 18.3058 52.2718 18.2265 52.1772C18.2044 52.1515 18.1962 52.1188 18.1717 52.0944C18.1717 52.0944 18.1717 52.0944 18.1705 52.0944C18.1692 52.0933 18.1692 52.0908 18.1681 52.0897L14.6529 48.5897C14.6156 48.5523 14.5677 48.5372 14.5257 48.5057C14.464 48.4579 14.4045 48.4136 14.3356 48.3797C14.2691 48.347 14.2014 48.3271 14.1314 48.3084C14.0568 48.2874 13.9845 48.2711 13.9063 48.2652C13.835 48.2606 13.7686 48.2675 13.6975 48.2757C13.6193 48.285 13.5459 48.2956 13.47 48.32C13.3964 48.3434 13.3312 48.3795 13.2635 48.4181C13.2203 48.4425 13.1714 48.4507 13.1305 48.4811L9.25133 51.3768L7.28077 49.4145L12.5285 44.1948L22.0674 53.5761L20.0383 55.5863ZM34.9544 40.2374C34.9207 40.2327 34.8891 40.2456 34.8553 40.2433C34.7701 40.2386 34.6885 40.2445 34.6034 40.2584C34.5369 40.2701 34.4739 40.2829 34.4108 40.3051C34.3362 40.3308 34.2685 40.3658 34.1996 40.4077C34.1343 40.4474 34.0748 40.4894 34.0176 40.5419C33.9896 40.5663 33.9558 40.5781 33.9301 40.606L23.6527 51.8622L14.185 42.5508L20.3825 36.3861C20.8387 35.9311 20.841 35.1925 20.386 34.7352C20.1562 34.5054 19.854 34.3922 19.5519 34.3934V34.3923L14.6984 34.4214L14.7591 30.9051L21.5492 30.9635C24.3166 33.7939 28.176 35.5591 32.446 35.5591C33.4027 35.5591 34.3361 35.4599 35.2448 35.2907C35.3323 35.3607 35.4186 35.4319 35.5284 35.4762L40.7995 37.5762L41.1331 39.2352L41.5228 41.1719L34.9544 40.2374ZM43.7944 40.627L43.1096 37.2191L46.2736 34.8566L47.102 35.9556L48.3445 37.6052L43.7944 40.627ZM52.0055 34.4343L50.1726 36.1516L48.1356 33.4473L49.9544 32.0531C50.2938 31.7919 50.7221 31.6856 51.1421 31.7405C51.5644 31.7999 51.9378 32.0205 52.1921 32.3623C52.6658 33.0005 52.5853 33.8907 52.0055 34.4343Z" fill="#212121"/>
        <path d="M29.7545 40.5651L25.0668 35.8984C24.613 35.4447 23.8755 35.4447 23.4205 35.8984L18.734 40.5651C18.5147 40.7857 18.391 41.0819 18.391 41.3923C18.391 41.7026 18.5135 42.0002 18.734 42.2195L23.4205 46.8861C23.648 47.1124 23.9468 47.2256 24.2443 47.2256C24.5418 47.2256 24.8404 47.1124 25.0668 46.8861L29.7545 42.2195C29.9738 42.0002 30.0987 41.7026 30.0987 41.3923C30.0987 41.0819 29.9749 40.7844 29.7545 40.5651ZM24.2443 44.4129L21.2109 41.3923L24.2443 38.3717L27.2788 41.3923L24.2443 44.4129Z" fill="#212121"/>
        <path d="M37.5468 11.0923L36.9833 13.358C37.1385 13.3966 40.7844 14.3462 40.7844 18.0586H43.1178C43.1177 13.6461 39.4742 11.5718 37.5468 11.0923Z" fill="#212121"/>
        <path d="M43.1178 20.3921H40.7844V22.7255H43.1178V20.3921Z" fill="#212121"/>
    </symbol>
    <!-- komp -->
    <symbol viewBox="0 0 70 54" fill="none" id="komp">
        <g clip-path="url(#clip0_707_599)">
        <path d="M32.6495 32.7349H34.9816V43.2294H32.6495V32.7349Z" fill="#2196F3"/>
        <path d="M41.978 37.3994H44.3101V43.2297H41.978V37.3994Z" fill="#2196F3"/>
        <path d="M23.3212 40.8975H25.6533V43.2296H23.3212V40.8975Z" fill="#2196F3"/>
        <path d="M16.3248 39.7314H18.6569V43.2296H16.3248V39.7314Z" fill="#2196F3"/>
        <path d="M3.49817 61.8866H59.4689C61.4007 61.8866 62.967 60.3203 62.967 58.3884V53.7242C62.967 51.7923 61.4007 50.226 59.4689 50.226H58.3028V21.1469L64.9262 14.8725C66.4635 15.6304 68.3242 15.1703 69.3302 13.7816C70.3369 12.3935 70.1957 10.4822 68.9966 9.2569C67.7975 8.03163 65.8901 7.84886 64.4798 8.82418C63.0701 9.80007 62.569 11.6499 63.2933 13.2037L58.3028 17.9346V15.2443C58.3028 13.3125 56.7365 11.7462 54.8046 11.7462H8.16239C6.23054 11.7462 4.66422 13.3125 4.66422 15.2443V50.226H3.49817C1.56632 50.226 0 51.7923 0 53.7242V58.3884C0 60.3203 1.56632 61.8866 3.49817 61.8866ZM66.4652 10.5801C67.1091 10.5801 67.6312 11.1022 67.6312 11.7462C67.6312 12.3901 67.1091 12.9122 66.4652 12.9122C65.8212 12.9122 65.2991 12.3901 65.2991 11.7462C65.2991 11.1022 65.8212 10.5801 66.4652 10.5801ZM6.99634 15.2443C6.99634 14.6004 7.51844 14.0783 8.16239 14.0783H54.8046C55.4486 14.0783 55.9707 14.6004 55.9707 15.2443V20.1414L53.6386 22.3574V17.5764C53.6386 16.9325 53.1165 16.4104 52.4725 16.4104H10.4945C9.85055 16.4104 9.32845 16.9325 9.32845 17.5764V46.7278C9.32845 47.3718 9.85055 47.8939 10.4945 47.8939H52.4725C53.1165 47.8939 53.6386 47.3718 53.6386 46.7278V25.5652L55.9707 23.3555V50.226H6.99634V15.2443ZM17.4908 30.4031C15.9131 30.3985 14.5279 31.4495 14.1083 32.9703C13.6886 34.4911 14.3383 36.1041 15.6951 36.9092C17.0513 37.7143 18.7793 37.5121 19.9129 36.415L23.9662 38.4487C24.4371 38.6844 25.0081 38.574 25.3583 38.1806L33.9745 28.4871L42.4443 34.8338C42.8987 35.1743 43.5329 35.1379 43.9452 34.7479L51.3065 27.7749V45.5618H11.6606V18.7425H51.3065V24.562L43.0564 32.3748L34.5154 25.9717C34.0303 25.6084 33.3476 25.6768 32.9445 26.1294L24.2099 35.9572L20.9446 34.3243C20.9685 34.1842 20.9833 34.043 20.989 33.9012C20.989 31.9694 19.4227 30.4031 17.4908 30.4031ZM18.6569 33.9012C18.6569 34.5452 18.1348 35.0673 17.4908 35.0673C16.8469 35.0673 16.3248 34.5452 16.3248 33.9012C16.3248 33.2573 16.8469 32.7352 17.4908 32.7352C18.1348 32.7352 18.6569 33.2573 18.6569 33.9012ZM25.6532 52.5581H37.3138V53.7242C37.3138 54.3681 36.7917 54.8902 36.1477 54.8902H26.8193C26.1753 54.8902 25.6532 54.3681 25.6532 53.7242V52.5581ZM2.33211 53.7242C2.33211 53.0802 2.85422 52.5581 3.49817 52.5581H23.3211V53.7242C23.3211 55.656 24.8874 57.2223 26.8193 57.2223H36.1477C38.0796 57.2223 39.6459 55.656 39.6459 53.7242V52.5581H59.4689C60.1128 52.5581 60.6349 53.0802 60.6349 53.7242V58.3884C60.6349 59.0324 60.1128 59.5545 59.4689 59.5545H3.49817C2.85422 59.5545 2.33211 59.0324 2.33211 58.3884V53.7242Z" fill="#212121"/>
        </g>
        <defs>
        <clipPath id="clip0_707_599">
        <rect width="70" height="70" fill="white"/>
        </clipPath>
        </defs>
    </symbol>
    <!-- spytnik -->
    <symbol viewBox="0 0 66 70" fill="none" id="spytnik">
        <path d="M67.3162 48.3385L48.8467 29.7337L50.8966 19.6373C51.4255 19.8438 51.9878 19.9517 52.5556 19.9558H52.5696C55.1776 19.9866 57.3169 17.8974 57.3478 15.2893C57.3787 12.6812 55.2894 10.542 52.6813 10.5111C50.0732 10.4803 47.934 12.5695 47.903 15.1776C47.8965 15.7357 47.9888 16.2905 48.1759 16.8163L37.3259 18.1405L19.6276 0.35C19.4104 0.128479 19.1141 0.00247917 18.8039 0C18.4976 0.00160417 18.2044 0.123521 17.9872 0.3395L14.6786 3.6295C14.2231 4.08508 14.2231 4.82358 14.6786 5.27917L16.4589 7.08517C9.56156 19.7681 11.8018 35.4741 21.9702 45.7228C22.0636 45.8121 22.1718 45.8843 22.2899 45.9363C22.2164 46.3311 22.178 46.7317 22.1756 47.1333V60.6667H8.17556C4.95556 60.6705 2.34602 63.28 2.34222 66.5V68.8333C2.34222 69.4776 2.8646 70 3.50889 70H57.1756C57.8199 70 58.3422 69.4776 58.3422 68.8333V66.5C58.3384 63.28 55.7289 60.6705 52.5089 60.6667H38.5089V54.6688C40.7021 55.1288 42.9367 55.3633 45.1776 55.3688C50.5547 55.363 55.8463 54.0225 60.5776 51.4675L62.3672 53.2677C62.5844 53.4892 62.8807 53.6152 63.1909 53.6177C63.4971 53.6161 63.7904 53.4941 64.0076 53.2782L67.3162 49.9882C67.7717 49.5326 67.7717 48.7941 67.3162 48.3385ZM50.9246 13.6348C51.8382 12.726 53.3156 12.7301 54.2243 13.6437C55.1332 14.5574 55.1291 16.0348 54.2154 16.9435C53.7781 17.3785 53.1863 17.6226 52.5694 17.6225H52.5624C51.2738 17.6158 50.2345 16.5658 50.2412 15.2771C50.2444 14.6602 50.4917 14.0699 50.9291 13.6348H50.9246ZM48.1782 21.301L46.8692 27.7445L44.2979 25.158L48.1782 21.301ZM46.8529 19.3282L42.6529 23.5037L39.4037 20.237L46.8529 19.3282ZM52.5089 63C54.4419 63 56.0089 64.567 56.0089 66.5V67.6667H4.67556V66.5C4.67556 64.567 6.24254 63 8.17556 63H52.5089ZM36.1756 58.3333V60.6667H24.5089V58.3333H36.1756ZM24.5089 56V47.1333C24.5089 44.303 27.1257 42 30.3422 42C33.5587 42 36.1756 44.303 36.1756 47.1333V56H24.5089ZM38.5089 52.29V47.1333C38.5089 43.0162 34.8456 39.6667 30.3422 39.6667C27.4305 39.622 24.7078 41.1041 23.1649 43.5738C14.2886 34.2249 12.2898 20.2875 18.1805 8.82073L58.8719 49.7455C52.5885 52.9419 45.3857 53.8418 38.5089 52.29ZM63.2037 50.7943L61.5599 49.1412L18.7922 6.11567L17.1414 4.46133L18.7922 2.81633L36.1499 20.272C36.1581 20.272 36.1627 20.2872 36.1709 20.293L64.8592 49.1493L63.2037 50.7943Z" fill="#212121"/>
        <path d="M30.3527 44.3335H30.3422C28.4092 44.3306 26.8399 45.8952 26.837 47.8283C26.8341 49.7613 28.3987 51.3306 30.3317 51.3335H30.3422C32.2752 51.3364 33.8446 49.7718 33.8475 47.8388C33.8504 45.9057 32.2857 44.3364 30.3527 44.3335ZM31.1694 48.6607C30.9498 48.8791 30.6521 49.0013 30.3422 49.0002C29.6979 48.9968 29.1783 48.4718 29.1817 47.8275C29.1833 47.5191 29.307 47.2239 29.5256 47.0063C29.7427 46.7904 30.036 46.6684 30.3422 46.6668C30.9865 46.6702 31.5061 47.1952 31.5028 47.8395C31.5012 48.1479 31.3775 48.4431 31.1589 48.6607H31.1694Z" fill="#2196F3"/>
    </symbol>
<!-- time -->
    <symbol viewBox="0 0 68 70" fill="none" id="time">
        <g clip-path="url(#clip0_707_589)">
        <path d="M68.4614 33.4715C68.4576 14.9819 53.4656 -0.00373771 34.9754 6.99302e-07C16.4858 0.00373911 1.50017 14.9963 1.50391 33.4859C1.50711 48.0502 10.9252 60.9413 24.7995 65.3713C24.9319 65.413 25.0697 65.4343 25.2081 65.4338C25.4719 65.4333 25.7304 65.3628 25.9573 65.2287C26.2527 65.0541 26.4732 64.7764 26.5768 64.449L35.0315 37.6521C37.3429 37.6404 39.2068 35.7568 39.1945 33.4459C39.1827 31.1345 37.2997 29.2706 34.9883 29.2824C34.3666 29.285 33.753 29.4282 33.1944 29.7011L22.0251 18.5302C21.4707 17.9951 20.5879 18.0106 20.0528 18.5644C19.5305 19.1054 19.5305 19.962 20.0528 20.503L31.2162 31.6792C30.3596 33.4277 30.8493 35.5383 32.3895 36.7303L24.3338 62.2647C8.41354 56.4002 0.261689 38.7405 6.12618 22.8203C11.9907 6.90002 29.6503 -1.25183 45.5706 4.61266C61.4909 10.4771 69.6427 28.1374 63.7782 44.0571C60.913 51.8351 55.0261 58.1252 47.4548 61.4989L46.5842 57.3989C46.4251 56.6454 45.6844 56.1636 44.9308 56.3233C44.6931 56.3741 44.4726 56.4857 44.291 56.6475L35.8978 64.1409C35.322 64.653 35.2708 65.5347 35.7835 66.1105C35.9501 66.2974 36.1637 66.4362 36.403 66.5126L47.1188 69.9327C47.8521 70.1682 48.6377 69.765 48.8732 69.0312C48.948 68.7994 48.9603 68.5527 48.9101 68.3145L48.0545 64.2915C60.4452 59.0678 68.4902 46.918 68.4614 33.4715ZM34.9829 32.0766C35.753 32.0766 36.3779 32.7014 36.3779 33.4715C36.3779 34.2422 35.753 34.8665 34.9829 34.8665C34.2123 34.8665 33.588 34.2422 33.588 33.4715C33.588 32.7014 34.2123 32.0766 34.9829 32.0766ZM39.5774 64.5916L44.3551 60.3298L45.6737 66.543L39.5774 64.5916Z" fill="#212121"/>
        <path d="M33.5879 6.96722V9.75714C33.5879 10.5278 34.2122 11.1521 34.9828 11.1521C35.753 11.1521 36.3778 10.5278 36.3778 9.75714V6.96722C36.3778 6.19711 35.753 5.57227 34.9828 5.57227C34.2122 5.57227 33.5879 6.19711 33.5879 6.96722Z" fill="#2196F3"/>
        <path d="M8.4787 32.0767C7.70805 32.0767 7.08374 32.7015 7.08374 33.4716C7.08374 34.2423 7.70805 34.8666 8.4787 34.8666H11.2686C12.0393 34.8666 12.6636 34.2423 12.6636 33.4716C12.6636 32.7015 12.0393 32.0767 11.2686 32.0767H8.4787Z" fill="#2196F3"/>
        <path d="M61.4865 34.8666C62.2572 34.8666 62.8815 34.2423 62.8815 33.4716C62.8815 32.7015 62.2572 32.0767 61.4865 32.0767H58.6966C57.9265 32.0767 57.3016 32.7015 57.3016 33.4716C57.3016 34.2423 57.9265 34.8666 58.6966 34.8666H61.4865Z" fill="#2196F3"/>
        </g>
        <defs>
        <clipPath id="clip0_707_589">
        <rect width="70" height="70" fill="white"/>
        </clipPath>
        </defs>
    </symbol>
    <!-- inst -->
    <symbol viewBox="0 0 20 20" fill="none" id="inst">
        <g clip-path="url(#clip0_707_812)">
        <path d="M19.9804 5.88005C19.9336 4.81738 19.7617 4.0868 19.5156 3.45374C19.2616 2.78176 18.8709 2.18014 18.359 1.68002C17.8589 1.1721 17.2533 0.777435 16.5891 0.527447C15.9524 0.281274 15.2256 0.109427 14.163 0.0625732C13.0924 0.0117516 12.7525 0 10.0371 0C7.32173 0 6.98185 0.0117516 5.91521 0.0586052C4.85253 0.105459 4.12195 0.277459 3.48904 0.523479C2.81692 0.777435 2.2153 1.16814 1.71517 1.68002C1.20726 2.18014 0.812743 2.78573 0.562603 3.44992C0.31643 4.0868 0.144583 4.81341 0.0977294 5.87609C0.0469078 6.9467 0.0351562 7.28658 0.0351562 10.002C0.0351562 12.7173 0.0469078 13.0572 0.0937614 14.1239C0.140615 15.1865 0.312615 15.9171 0.558787 16.5502C0.812743 17.2221 1.20726 17.8238 1.71517 18.3239C2.2153 18.8318 2.82088 19.2265 3.48508 19.4765C4.12195 19.7226 4.84856 19.8945 5.91139 19.9413C6.97788 19.9883 7.31791 19.9999 10.0333 19.9999C12.7487 19.9999 13.0885 19.9883 14.1552 19.9413C15.2179 19.8945 15.9484 19.7226 16.5813 19.4765C17.9254 18.9568 18.9881 17.8941 19.5078 16.5502C19.7538 15.9133 19.9258 15.1865 19.9727 14.1239C20.0195 13.0572 20.0313 12.7173 20.0313 10.002C20.0313 7.28658 20.0273 6.9467 19.9804 5.88005ZM18.1794 14.0457C18.1364 15.0225 17.9723 15.5499 17.8356 15.9015C17.4995 16.7728 16.808 17.4643 15.9367 17.8004C15.5851 17.9372 15.0538 18.1012 14.0809 18.1441C13.026 18.1911 12.7096 18.2027 10.0411 18.2027C7.37255 18.2027 7.05221 18.1911 6.00113 18.1441C5.02438 18.1012 4.49693 17.9372 4.1453 17.8004C3.71171 17.6402 3.31704 17.3862 2.9967 17.0541C2.6646 16.7298 2.41065 16.3391 2.2504 15.9055C2.11365 15.5539 1.94959 15.0225 1.90671 14.0497C1.8597 12.9948 1.8481 12.6783 1.8481 10.0097C1.8481 7.34122 1.8597 7.02087 1.90671 5.96995C1.94959 4.99319 2.11365 4.46575 2.2504 4.11412C2.41065 3.68038 2.6646 3.28586 3.00067 2.96536C3.32483 2.63327 3.71553 2.37931 4.14927 2.21921C4.5009 2.08247 5.03231 1.9184 6.0051 1.87537C7.05999 1.82851 7.37652 1.81676 10.0449 1.81676C12.7174 1.81676 13.0337 1.82851 14.0848 1.87537C15.0616 1.9184 15.589 2.08247 15.9407 2.21921C16.3742 2.37931 16.7689 2.63327 17.0893 2.96536C17.4213 3.28967 17.6753 3.68038 17.8356 4.11412C17.9723 4.46575 18.1364 4.99701 18.1794 5.96995C18.2263 7.02484 18.238 7.34122 18.238 10.0097C18.238 12.6783 18.2263 12.9908 18.1794 14.0457Z" fill="white"/>
        <path d="M10.0371 4.86426C7.20074 4.86426 4.89941 7.16543 4.89941 10.002C4.89941 12.8385 7.20074 15.1397 10.0371 15.1397C12.8737 15.1397 15.1749 12.8385 15.1749 10.002C15.1749 7.16543 12.8737 4.86426 10.0371 4.86426ZM10.0371 13.3347C8.19702 13.3347 6.70442 11.8422 6.70442 10.002C6.70442 8.16172 8.19702 6.66927 10.0371 6.66927C11.8774 6.66927 13.3698 8.16172 13.3698 10.002C13.3698 11.8422 11.8774 13.3347 10.0371 13.3347Z" fill="white"/>
        <path d="M16.5775 4.66134C16.5775 5.3237 16.0404 5.86076 15.3779 5.86076C14.7155 5.86076 14.1785 5.3237 14.1785 4.66134C14.1785 3.99882 14.7155 3.46191 15.3779 3.46191C16.0404 3.46191 16.5775 3.99882 16.5775 4.66134Z" fill="white"/>
        </g>
</symbol>
<!-- facebook-card -->
    <symbol viewBox="0 0 11 20" fill="none" id="face-card" >
        <path d="M8.33088 3.32083H10.1567V0.140833C9.84172 0.0975 8.75839 0 7.49672 0C4.86422 0 3.06088 1.65583 3.06088 4.69917V7.5H0.155884V11.055H3.06088V20H6.62255V11.0558H9.41005L9.85255 7.50083H6.62172V5.05167C6.62255 4.02417 6.89922 3.32083 8.33088 3.32083Z" fill="#AFB1B8"/>
    </symbol>
<!-- twiter -->
    <symbol viewBox="0 0 20 20" fill="none" id="twit">
        <g clip-path="url(#clip0_707_806)">
        <path d="M20 3.79875C19.2563 4.125 18.4637 4.34125 17.6375 4.44625C18.4875 3.93875 19.1363 3.14125 19.4412 2.18C18.6488 2.6525 17.7738 2.98625 16.8412 3.1725C16.0887 2.37125 15.0162 1.875 13.8462 1.875C11.5763 1.875 9.74875 3.7175 9.74875 5.97625C9.74875 6.30125 9.77625 6.61375 9.84375 6.91125C6.435 6.745 3.41875 5.11125 1.3925 2.6225C1.03875 3.23625 0.83125 3.93875 0.83125 4.695C0.83125 6.115 1.5625 7.37375 2.6525 8.1025C1.99375 8.09 1.3475 7.89875 0.8 7.5975C0.8 7.61 0.8 7.62625 0.8 7.6425C0.8 9.635 2.22125 11.29 4.085 11.6712C3.75125 11.7625 3.3875 11.8062 3.01 11.8062C2.7475 11.8062 2.4825 11.7913 2.23375 11.7362C2.765 13.36 4.2725 14.5538 6.065 14.5925C4.67 15.6838 2.89875 16.3412 0.98125 16.3412C0.645 16.3412 0.3225 16.3263 0 16.285C1.81625 17.4563 3.96875 18.125 6.29 18.125C13.835 18.125 17.96 11.875 17.96 6.4575C17.96 6.27625 17.9538 6.10125 17.945 5.9275C18.7588 5.35 19.4425 4.62875 20 3.79875Z" fill="white"/>
        </g>
        <defs>
        <clipPath id="clip0_707_806">
        <rect width="20" height="20" fill="white"/>
        </clipPath>
        </defs>
    </symbol>
<!-- facebook -->
    <symbol viewBox="0 0 20 20" fill="none" id="face">
        <g clip-path="url(#clip0_707_802)">
        <path d="M13.3309 3.32083H15.1567V0.140833C14.8417 0.0975 13.7584 0 12.4967 0C9.86422 0 8.06088 1.65583 8.06088 4.69917V7.5H5.15588V11.055H8.06088V20H11.6226V11.0558H14.4101L14.8526 7.50083H11.6217V5.05167C11.6226 4.02417 11.8992 3.32083 13.3309 3.32083Z" fill="white"/>
        </g>
        <defs>
        <clipPath id="clip0_707_802">
        <rect width="20" height="20" fill="white"/>
        </clipPath>
        </defs>
    </symbol>
    <!-- in -->
    <symbol viewBox="0 0 20 20" fill="none" id="inn">
        <g clip-path="url(#clip0_707_796)">
        <path d="M19.9951 19.9999V19.999H20.0001V12.664C20.0001 9.07569 19.2276 6.31152 15.0326 6.31152C13.0159 6.31152 11.6626 7.41819 11.1101 8.46736H11.0517V6.64652H7.07422V19.999H11.2159V13.3874C11.2159 11.6465 11.5459 9.96319 13.7017 9.96319C15.8259 9.96319 15.8576 11.9499 15.8576 13.499V19.9999H19.9951Z" fill="white"/>
        <path d="M0.329956 6.64746H4.47662V20H0.329956V6.64746Z" fill="white"/>
        <path d="M2.40167 0C1.07583 0 0 1.07583 0 2.40167C0 3.7275 1.07583 4.82583 2.40167 4.82583C3.7275 4.82583 4.80333 3.7275 4.80333 2.40167C4.8025 1.07583 3.72667 0 2.40167 0V0Z" fill="white"/>
        </g>
        <defs>
        <clipPath id="clip0_707_796">
        <rect width="20" height="20" fill="white"/>
        </clipPath>
        </defs>
    </symbol>
    <!-- inst-card  -->
    <symbol viewBox="0 0 20 20" fill="none" id="inst-card">
        <g clip-path="url(#clip0_707_728)">
        <path d="M19.9804 5.88005C19.9336 4.81738 19.7617 4.0868 19.5156 3.45374C19.2616 2.78176 18.8709 2.18014 18.359 1.68002C17.8589 1.1721 17.2533 0.777435 16.5891 0.527447C15.9524 0.281274 15.2256 0.109427 14.163 0.0625732C13.0924 0.0117516 12.7525 0 10.0371 0C7.32173 0 6.98185 0.0117516 5.91521 0.0586052C4.85253 0.105459 4.12195 0.277459 3.48904 0.523479C2.81692 0.777435 2.2153 1.16814 1.71517 1.68002C1.20726 2.18014 0.812743 2.78573 0.562603 3.44992C0.31643 4.0868 0.144583 4.81341 0.0977294 5.87609C0.0469078 6.9467 0.0351562 7.28658 0.0351562 10.002C0.0351562 12.7173 0.0469078 13.0572 0.0937614 14.1239C0.140615 15.1865 0.312615 15.9171 0.558787 16.5502C0.812743 17.2221 1.20726 17.8238 1.71517 18.3239C2.2153 18.8318 2.82088 19.2265 3.48508 19.4765C4.12195 19.7226 4.84856 19.8945 5.91139 19.9413C6.97788 19.9883 7.31791 19.9999 10.0333 19.9999C12.7487 19.9999 13.0885 19.9883 14.1552 19.9413C15.2179 19.8945 15.9484 19.7226 16.5813 19.4765C17.9254 18.9568 18.9881 17.8941 19.5078 16.5502C19.7538 15.9133 19.9258 15.1865 19.9727 14.1239C20.0195 13.0572 20.0313 12.7173 20.0313 10.002C20.0313 7.28658 20.0273 6.9467 19.9804 5.88005ZM18.1794 14.0457C18.1364 15.0225 17.9723 15.5499 17.8356 15.9015C17.4995 16.7728 16.808 17.4643 15.9367 17.8004C15.5851 17.9372 15.0538 18.1012 14.0809 18.1441C13.026 18.1911 12.7096 18.2027 10.0411 18.2027C7.37255 18.2027 7.05221 18.1911 6.00113 18.1441C5.02438 18.1012 4.49693 17.9372 4.1453 17.8004C3.71171 17.6402 3.31704 17.3862 2.9967 17.0541C2.6646 16.7298 2.41065 16.3391 2.2504 15.9055C2.11365 15.5539 1.94959 15.0225 1.90671 14.0497C1.8597 12.9948 1.8481 12.6783 1.8481 10.0097C1.8481 7.34122 1.8597 7.02087 1.90671 5.96995C1.94959 4.99319 2.11365 4.46575 2.2504 4.11412C2.41065 3.68038 2.6646 3.28586 3.00067 2.96536C3.32483 2.63327 3.71553 2.37931 4.14927 2.21921C4.5009 2.08247 5.03231 1.9184 6.0051 1.87537C7.05999 1.82851 7.37652 1.81676 10.0449 1.81676C12.7174 1.81676 13.0337 1.82851 14.0848 1.87537C15.0616 1.9184 15.589 2.08247 15.9407 2.21921C16.3742 2.37931 16.7689 2.63327 17.0893 2.96536C17.4213 3.28967 17.6753 3.68038 17.8356 4.11412C17.9723 4.46575 18.1364 4.99701 18.1794 5.96995C18.2263 7.02484 18.238 7.34122 18.238 10.0097C18.238 12.6783 18.2263 12.9908 18.1794 14.0457Z" fill="#AFB1B8"/>
        <path d="M10.0371 4.86426C7.20074 4.86426 4.89941 7.16543 4.89941 10.002C4.89941 12.8385 7.20074 15.1397 10.0371 15.1397C12.8737 15.1397 15.1749 12.8385 15.1749 10.002C15.1749 7.16543 12.8737 4.86426 10.0371 4.86426ZM10.0371 13.3347C8.19702 13.3347 6.70442 11.8422 6.70442 10.002C6.70442 8.16172 8.19702 6.66927 10.0371 6.66927C11.8774 6.66927 13.3698 8.16172 13.3698 10.002C13.3698 11.8422 11.8774 13.3347 10.0371 13.3347Z" fill="#AFB1B8"/>
        <path d="M16.5775 4.66134C16.5775 5.3237 16.0404 5.86076 15.3779 5.86076C14.7155 5.86076 14.1785 5.3237 14.1785 4.66134C14.1785 3.99882 14.7155 3.46191 15.3779 3.46191C16.0404 3.46191 16.5775 3.99882 16.5775 4.66134Z" fill="#AFB1B8"/>
        </g>
        <defs>
        <clipPath id="clip0_707_728">
        <rect width="20" height="20" fill="white"/>
        </clipPath>
        </defs>
    </symbol>
    <!-- twit-card -->
    <symbol viewBox="0 0 20 20" fill="none" id="twit-card">
        <g clip-path="url(#clip0_707_722)">
        <path d="M20 3.79875C19.2563 4.125 18.4637 4.34125 17.6375 4.44625C18.4875 3.93875 19.1363 3.14125 19.4412 2.18C18.6488 2.6525 17.7738 2.98625 16.8412 3.1725C16.0887 2.37125 15.0162 1.875 13.8462 1.875C11.5763 1.875 9.74875 3.7175 9.74875 5.97625C9.74875 6.30125 9.77625 6.61375 9.84375 6.91125C6.435 6.745 3.41875 5.11125 1.3925 2.6225C1.03875 3.23625 0.83125 3.93875 0.83125 4.695C0.83125 6.115 1.5625 7.37375 2.6525 8.1025C1.99375 8.09 1.3475 7.89875 0.8 7.5975C0.8 7.61 0.8 7.62625 0.8 7.6425C0.8 9.635 2.22125 11.29 4.085 11.6712C3.75125 11.7625 3.3875 11.8062 3.01 11.8062C2.7475 11.8062 2.4825 11.7913 2.23375 11.7362C2.765 13.36 4.2725 14.5538 6.065 14.5925C4.67 15.6838 2.89875 16.3412 0.98125 16.3412C0.645 16.3412 0.3225 16.3263 0 16.285C1.81625 17.4563 3.96875 18.125 6.29 18.125C13.835 18.125 17.96 11.875 17.96 6.4575C17.96 6.27625 17.9538 6.10125 17.945 5.9275C18.7588 5.35 19.4425 4.62875 20 3.79875Z" fill="#AFB1B8"/>
        </g>
        <defs>
        <clipPath id="clip0_707_722">
        <rect width="20" height="20" fill="white"/>
        </clipPath>
        </defs>
    </symbol>
    <!-- inn-card -->
    <symbol viewBox="0 0 20 20" fill="none" id="inn-card">
        <g clip-path="url(#clip0_707_712)">
        <path d="M19.9951 19.9999V19.999H20.0001V12.664C20.0001 9.07569 19.2276 6.31152 15.0326 6.31152C13.0159 6.31152 11.6626 7.41819 11.1101 8.46736H11.0517V6.64652H7.07422V19.999H11.2159V13.3874C11.2159 11.6465 11.5459 9.96319 13.7017 9.96319C15.8259 9.96319 15.8576 11.9499 15.8576 13.499V19.9999H19.9951Z" fill="#AFB1B8"/>
        <path d="M0.329956 6.64746H4.47662V20H0.329956V6.64746Z" fill="#AFB1B8"/>
        <path d="M2.40167 0C1.07583 0 0 1.07583 0 2.40167C0 3.7275 1.07583 4.82583 2.40167 4.82583C3.7275 4.82583 4.80333 3.7275 4.80333 2.40167C4.8025 1.07583 3.72667 0 2.40167 0V0Z" fill="#AFB1B8"/>
        </g>
        <defs>
        <clipPath id="clip0_707_712">
        <rect width="20" height="20" fill="white"/>
        </clipPath>
        </defs>
    </symbol>

            <!-- logo1 -->

    <symbol viewBox="0 0 41 47" id="logo1">
        <path fill-rule="evenodd" clip-rule="evenodd" d="M6 0L13.0078 6.63413L0 6.62646V38.8137H34V26.507L41 33.1338V0H6ZM33.6924 25.7283L13.8226 6.91796H33.6924V25.7283ZM27.5231 34.1055H5.38008V12.4579H6.9453V32.6397H27.5231V34.1055ZM10.6089 43.0991L9.79102 44.7837L8.97314 43.0991H8.28711L9.48096 45.3452V46.6538H10.1011V45.3452L11.2925 43.0991H10.6089ZM11.6367 46.6538L11.9248 45.8262H13.3018L13.5923 46.6538H14.2368L12.8916 43.0991H12.3374L10.9946 46.6538H11.6367ZM12.6133 43.8535L13.1284 45.3281H12.0981L12.6133 43.8535ZM15.8701 45.2427C15.7806 45.3794 15.7358 45.5299 15.7358 45.6943C15.7358 45.9938 15.8408 46.2371 16.0508 46.4243C16.2624 46.6099 16.5439 46.7026 16.8955 46.7026C17.2471 46.7026 17.5498 46.6074 17.8037 46.417L18.0039 46.6538H18.6924L18.1699 46.0361C18.375 45.7562 18.4775 45.3973 18.4775 44.9595H17.9624C17.9624 45.1987 17.9128 45.416 17.8135 45.6113L17.1274 44.8008L17.3691 44.625C17.54 44.5013 17.6629 44.3776 17.7378 44.2539C17.8127 44.1286 17.8501 43.9919 17.8501 43.8438C17.8501 43.6191 17.7671 43.4312 17.6011 43.2798C17.4367 43.1268 17.2251 43.0503 16.9663 43.0503C16.6798 43.0503 16.452 43.1317 16.2827 43.2944C16.1134 43.4556 16.0288 43.6753 16.0288 43.9536C16.0288 44.0675 16.0557 44.1855 16.1094 44.3076C16.1647 44.4297 16.2616 44.5778 16.3999 44.752C16.1362 44.9408 15.9596 45.1043 15.8701 45.2427ZM17.4741 46.0288C17.3 46.1623 17.1128 46.229 16.9126 46.229C16.7352 46.229 16.5936 46.1777 16.4878 46.0752C16.382 45.9727 16.3291 45.8392 16.3291 45.6748C16.3291 45.4844 16.4268 45.3151 16.6221 45.167L16.6978 45.1133L17.4741 46.0288ZM16.8369 44.4541C16.6693 44.2474 16.5854 44.0757 16.5854 43.939C16.5854 43.8201 16.6196 43.7217 16.688 43.6436C16.7563 43.5654 16.8483 43.5264 16.9639 43.5264C17.0713 43.5264 17.16 43.5597 17.23 43.6265C17.3 43.6916 17.335 43.7705 17.335 43.8633C17.335 44.0033 17.2845 44.118 17.1836 44.2075L17.1079 44.2686L16.8369 44.4541ZM22.623 46.3853C22.8672 46.172 23.0072 45.8758 23.043 45.4966H22.4277C22.3952 45.7505 22.3179 45.932 22.1958 46.041C22.0737 46.1501 21.8914 46.2046 21.6489 46.2046C21.3836 46.2046 21.1818 46.1037 21.0435 45.9019C20.9067 45.7 20.8384 45.4071 20.8384 45.0229V44.708C20.8416 44.3288 20.9149 44.0415 21.0581 43.8462C21.203 43.6493 21.4097 43.5508 21.6782 43.5508C21.9093 43.5508 22.0843 43.6077 22.2031 43.7217C22.3236 43.834 22.3984 44.0179 22.4277 44.2734H23.043C23.0039 43.8844 22.8647 43.5833 22.6255 43.3701C22.3862 43.1569 22.0705 43.0503 21.6782 43.0503C21.3869 43.0503 21.1297 43.1195 20.9067 43.2578C20.6854 43.3962 20.5153 43.5931 20.3965 43.8486C20.2777 44.1042 20.2183 44.3996 20.2183 44.7349V45.0669C20.2231 45.394 20.2842 45.6813 20.4014 45.9287C20.5186 46.1761 20.6846 46.3674 20.8994 46.5024C21.1159 46.6359 21.3657 46.7026 21.6489 46.7026C22.0542 46.7026 22.3789 46.5968 22.623 46.3853ZM26.2534 45.8872C26.3739 45.6235 26.4341 45.3175 26.4341 44.9692V44.7715C26.4325 44.4248 26.3706 44.1213 26.2485 43.8608C26.1265 43.5988 25.9531 43.3986 25.7285 43.2603C25.5055 43.1203 25.2492 43.0503 24.9595 43.0503C24.6698 43.0503 24.4126 43.1211 24.188 43.2627C23.965 43.4027 23.7917 43.6053 23.668 43.8706C23.5459 44.1359 23.4849 44.4419 23.4849 44.7886V44.9888C23.4865 45.3289 23.5483 45.6292 23.6704 45.8896C23.7941 46.1501 23.9683 46.3511 24.1929 46.4927C24.4191 46.6326 24.6763 46.7026 24.9644 46.7026C25.2557 46.7026 25.5129 46.6326 25.7358 46.4927C25.9604 46.3511 26.133 46.1493 26.2534 45.8872ZM25.5918 43.8779C25.7415 44.0879 25.8164 44.3898 25.8164 44.7837V44.9692C25.8164 45.3696 25.7423 45.674 25.5942 45.8823C25.4478 46.0907 25.2378 46.1948 24.9644 46.1948C24.6942 46.1948 24.4826 46.0882 24.3296 45.875C24.1782 45.6618 24.1025 45.3599 24.1025 44.9692V44.7642C24.1058 44.3817 24.1823 44.0863 24.332 43.8779C24.4834 43.668 24.6925 43.563 24.9595 43.563C25.2329 43.563 25.4437 43.668 25.5918 43.8779Z" />
    </symbol>

    <!-- logo2 -->

    <symbol viewBox="0 0 40 52" id="logo2" >
        <path fill-rule="evenodd" clip-rule="evenodd" d="M17.1136 2.93452H16.977C16.7671 2.92181 16.5571 2.91672 16.3471 2.91163H16.3471H16.3269H15.8918C15.4946 2.91163 15.0898 2.92181 14.6876 2.94215C14.6573 2.93994 14.6269 2.93994 14.5966 2.94215C10.9522 3.14863 7.38171 4.05951 4.08049 5.62492L3.6479 5.83344V27.9746L4.65979 27.6313C5.54773 27.3261 6.49384 27.0515 7.47285 26.7972C10.1193 26.1178 12.8367 25.7567 15.568 25.7216V28.6306C15.2062 28.6332 14.8546 28.6434 14.503 28.6612H14.4195C12.3175 28.7765 10.2317 29.0967 8.19129 29.6173C5.60716 30.2643 3.11433 31.2357 0.771606 32.5086V4.11189C3.20469 2.69275 5.82533 1.62687 8.55557 0.945963C10.9527 0.327052 13.4169 0.00930695 15.8918 0H16.3193C16.8303 0.0127146 17.3287 0.0356008 17.7967 0.0712015C19.0297 0.157776 20.2528 0.352628 21.4521 0.653528V3.51685C20.2874 3.24551 19.1032 3.06695 17.9105 2.98284C17.8863 2.98079 17.8621 2.97872 17.8379 2.97666C17.5911 2.95561 17.344 2.93452 17.1136 2.93452ZM22.1528 5.86138C22.7877 5.9097 23.4455 5.93259 24.1108 5.93259C26.7125 5.92307 29.3031 5.59083 31.8239 4.94339C34.4068 4.29396 36.8986 3.32178 39.2411 2.04956V29.9402C36.8067 31.3585 34.1853 32.4243 31.4546 33.1061C29.0571 33.7227 26.5931 34.0395 24.1184 34.0496C22.2433 34.0647 20.3737 33.8443 18.553 33.3935V5.32229C18.983 5.42146 19.4257 5.51301 19.876 5.58929C20.6147 5.7139 21.3939 5.80544 22.1528 5.86138ZM36.3471 6.07753L35.3352 6.41828C34.4042 6.73106 33.4657 7.01078 32.5221 7.25998C29.7749 7.96596 26.9514 8.3281 24.1158 8.33818C23.4556 8.33818 22.8485 8.32038 22.2616 8.28224L21.4546 8.22883V28.3178V31.0057L22.1477 31.0667C22.7903 31.1227 23.4531 31.1506 24.1209 31.1506C26.3544 31.1412 28.5781 30.8533 30.7412 30.2937C32.5223 29.8469 34.2552 29.2243 35.9145 28.4348L36.3471 28.2263V6.07753Z" />
        <path d="M2.73713 42.212C2.59166 42.0611 2.41629 41.9427 2.22236 41.8642C2.02844 41.7858 1.82029 41.7492 1.61141 41.7568C1.38879 41.7539 1.16781 41.7954 0.961267 41.8789C0.771901 41.9543 0.599767 42.0677 0.455322 42.212C0.312451 42.3568 0.201292 42.5301 0.128988 42.7206C0.0496792 42.9203 0.0101425 43.1337 0.0126205 43.3487V47.1427C0.00357283 47.4101 0.0545882 47.676 0.161874 47.9209C0.251433 48.1153 0.380725 48.2886 0.541333 48.4294C0.692953 48.5571 0.870978 48.6492 1.06246 48.699C1.24694 48.7508 1.43755 48.7774 1.62911 48.7778C1.84041 48.7799 2.04953 48.7348 2.24131 48.6456C2.43095 48.5626 2.60277 48.4434 2.74725 48.2947C2.88814 48.1473 3.00052 47.9748 3.07865 47.7861C3.15973 47.5948 3.20105 47.3888 3.20007 47.1809V46.7562H2.20842V47.0944C2.21137 47.2099 2.1916 47.3248 2.15024 47.4326C2.11794 47.5134 2.06877 47.5862 2.00604 47.6462C1.94461 47.6959 1.87416 47.733 1.79861 47.7556C1.73164 47.7779 1.6617 47.7899 1.59117 47.7912C1.50263 47.8015 1.41296 47.7881 1.33122 47.7524C1.24948 47.7166 1.17858 47.6599 1.1257 47.5877C1.03222 47.4353 0.986395 47.2581 0.994154 47.0792V43.542C0.988002 43.3458 1.02969 43.1511 1.11558 42.9749C1.16706 42.8948 1.2399 42.8309 1.32578 42.7904C1.41166 42.75 1.50713 42.7346 1.60129 42.746C1.68676 42.743 1.7717 42.7608 1.8488 42.798C1.92591 42.8352 1.99289 42.8907 2.04399 42.9596C2.15496 43.1053 2.21298 43.2848 2.20842 43.4682V43.7963H3.18995V43.4097C3.19195 43.1827 3.15073 42.9575 3.06853 42.746C2.99527 42.5473 2.88251 42.3656 2.73713 42.212Z" />
        <path d="M8.62892 42.169C8.31271 41.902 7.91362 41.7545 7.50066 41.752C7.29868 41.7528 7.09838 41.7889 6.9087 41.8588C6.71613 41.9278 6.53841 42.0331 6.38505 42.169C6.22076 42.3167 6.08968 42.4978 6.00053 42.7005C5.90063 42.9322 5.85146 43.1828 5.85634 43.4354V47.0743C5.8495 47.3302 5.89873 47.5846 6.00053 47.8193C6.09028 48.015 6.22152 48.1886 6.38505 48.3279C6.53665 48.4687 6.71468 48.5776 6.9087 48.6483C7.09838 48.7181 7.29868 48.7543 7.50066 48.7551C7.70269 48.7547 7.90307 48.7186 8.09262 48.6483C8.28995 48.5766 8.47195 48.4679 8.62892 48.3279C8.7871 48.186 8.91454 48.0129 9.00332 47.8193C9.10512 47.5846 9.15435 47.3302 9.14751 47.0743V43.4354C9.15239 43.1828 9.10322 42.9322 9.00332 42.7005C8.91505 42.5 8.78775 42.3193 8.62892 42.169ZM8.16598 47.0743C8.17434 47.1713 8.16095 47.2689 8.1268 47.36C8.09265 47.4511 8.03861 47.5333 7.96866 47.6007C7.83768 47.7105 7.67251 47.7707 7.50193 47.7707C7.33135 47.7707 7.16617 47.7105 7.03519 47.6007C6.96524 47.5333 6.9112 47.4511 6.87705 47.36C6.8429 47.2689 6.82952 47.1713 6.83787 47.0743V43.4354C6.82952 43.3384 6.8429 43.2407 6.87705 43.1496C6.9112 43.0585 6.96524 42.9763 7.03519 42.909C7.16617 42.7991 7.33135 42.739 7.50193 42.739C7.67251 42.739 7.83768 42.7991 7.96866 42.909C8.03861 42.9763 8.09265 43.0585 8.1268 43.1496C8.16095 43.2407 8.17434 43.3384 8.16598 43.4354V47.0743Z" />
        <path d="M16.3673 48.6993V41.8105H15.4136L14.1614 45.4571H14.1437L12.8813 41.8105H11.9377V48.6993H12.9218V44.5086H12.9395L13.9033 47.4711H14.3941L15.3655 44.5086H15.3832V48.6993H16.3673Z" />
        <path d="M21.9581 42.294C21.8065 42.124 21.6153 41.9947 21.4015 41.9177C21.1712 41.8428 20.9302 41.8067 20.6881 41.8109H19.226V48.6996H20.2075V46.0092H20.7134C21.0197 46.0232 21.3244 45.9584 21.5988 45.8211C21.822 45.6971 22.0081 45.5154 22.1377 45.2947C22.2512 45.1114 22.3277 44.9075 22.3628 44.6945C22.4014 44.4353 22.4192 44.1734 22.4159 43.9113C22.4255 43.5805 22.3932 43.2498 22.3198 42.9272C22.2543 42.6888 22.1299 42.471 21.9581 42.294ZM21.4521 44.3945C21.4479 44.5192 21.4168 44.6415 21.361 44.753C21.3049 44.859 21.2162 44.9437 21.1081 44.9946C20.9627 45.0596 20.8041 45.0892 20.6451 45.0811H20.1974V42.739H20.7033C20.8557 42.7316 21.0075 42.7612 21.146 42.8255C21.2475 42.8837 21.3281 42.9727 21.3762 43.0798C21.4299 43.2008 21.4591 43.3313 21.4622 43.4638C21.4622 43.6087 21.4622 43.7613 21.4622 43.9215C21.4622 44.0817 21.4723 44.247 21.4622 44.3945H21.4521Z" />
        <path d="M26.6077 41.8105H25.8032L24.2854 48.6993H25.2669L25.5553 47.2193H26.8935L27.1819 48.6993H28.1635L26.6077 41.8105ZM25.702 46.281L26.1852 43.7838H26.2029L26.6836 46.281H25.702Z" />
        <path d="M32.9497 45.9606H32.932L31.4496 41.8105H30.506V48.6993H31.4875V44.5569H31.5078L33.0079 48.6993H33.9312V41.8105H32.9497V45.9606Z" />
        <path d="M38.9476 41.8105L38.1583 44.5493H38.1381L37.3488 41.8105H36.3091L37.6574 45.7877V48.6993H38.639V45.7877L39.9873 41.8105H38.9476Z" />
        <path d="M0 50.6442H0.473058V51.9716H0.794333V50.6442H1.26486V50.3721H0V50.6442Z" />
        <path d="M3.97672 50.3721L3.35693 51.9716H3.69845L3.82999 51.6079H4.46748L4.60409 51.9716H4.95319L4.31823 50.3721H3.97672ZM3.92612 51.3384L4.14368 50.7459L4.36123 51.3384H3.92612Z" />
        <path d="M7.90793 51.3821H8.27727V51.5881C8.16941 51.6746 8.03576 51.722 7.89781 51.7229C7.8333 51.7265 7.76886 51.7145 7.70988 51.688C7.65091 51.6614 7.59911 51.6211 7.55883 51.5703C7.47402 51.4485 7.43217 51.3017 7.43993 51.1533C7.43993 50.7973 7.59424 50.6193 7.90034 50.6193C7.98091 50.6112 8.06168 50.6325 8.12804 50.6791C8.19439 50.7257 8.24194 50.7947 8.26209 50.8735L8.57831 50.8125C8.51001 50.4997 8.28486 50.3421 7.90034 50.3421C7.69468 50.3366 7.4947 50.4103 7.34127 50.5481C7.26069 50.6276 7.19834 50.7239 7.15858 50.8302C7.11882 50.9365 7.10261 51.0502 7.11107 51.1634C7.10175 51.3823 7.17493 51.5966 7.31598 51.7636C7.39434 51.8444 7.4892 51.9071 7.59401 51.9475C7.69883 51.9879 7.8111 52.0049 7.92311 51.9975C8.17338 52.0045 8.41652 51.9133 8.60108 51.7432V51.1126H7.90793V51.3821Z" />
        <path d="M11.9226 50.3721H11.5988V51.9716H12.7194V51.6995H11.9226V50.3721Z" />
        <path d="M15.3175 50.3721H14.9937V51.9716H15.3175V50.3721Z"/>
        <path d="M18.6365 51.4401L17.9813 50.3721H17.6676V51.9716H17.9686V50.9264L18.6112 51.9716H18.9325V50.3721H18.6365V51.4401Z"/>
        <path d="M21.6368 51.2672H22.4337V50.9951H21.6368V50.6442H22.4944V50.3721H21.313V51.9716H22.5273V51.6995H21.6368V51.2672Z" >
        <path d="M28.9122 51.0027H28.2823V50.3721H27.9611V51.9716H28.2823V51.2723H28.9122V51.9716H29.2335V50.3721H28.9122V51.0027Z"/>
        <path d="M31.9302 51.2672H32.7296V50.9951H31.9302V50.6442H32.7903V50.3721H31.6089V51.9716H32.8206V51.6995H31.9302V51.2672Z"/>
        <path d="M36.0233 51.2674C36.3015 51.2241 36.4432 51.0766 36.4432 50.8224C36.4513 50.7543 36.441 50.6854 36.4134 50.6227C36.3858 50.5601 36.3419 50.5061 36.2863 50.4663C36.1415 50.3936 35.9799 50.3611 35.8183 50.3723H35.1404V51.9717H35.4617V51.303H35.5249C35.5934 51.2987 35.6619 51.3109 35.7247 51.3386C35.7717 51.3675 35.8108 51.4077 35.8386 51.4555L36.1877 51.9641H36.5722L36.3774 51.6513C36.2913 51.4969 36.1699 51.3653 36.0233 51.2674ZM35.6994 51.0461H35.4617V50.6444H35.7146C35.8248 50.6354 35.9357 50.6484 36.041 50.6825C36.0644 50.7031 36.0828 50.7288 36.095 50.7576C36.1072 50.7865 36.1127 50.8176 36.1113 50.8489C36.1098 50.8802 36.1014 50.9107 36.0866 50.9382C36.0718 50.9658 36.051 50.9896 36.0258 51.008C35.9202 51.0404 35.8096 51.0533 35.6994 51.0461Z" />
        <path d="M39.1096 51.2672H39.9064V50.9951H39.1096V50.6442H39.9697V50.3721H38.7858V51.9716H40V51.6995H39.1096V51.2672Z" />
    </symbol>

    <!-- logo3 -->
    <svg viewBox="0 0 106 60" id="logo3" >
<path d="M36.4063 49.1018C36.4222 49.1022 36.4379 49.1053 36.4524 49.111C36.4669 49.1167 36.4799 49.1248 36.4908 49.135L36.7089 49.3435C36.5396 49.5122 36.3304 49.6472 36.0955 49.7391C35.8204 49.8395 35.5239 49.8879 35.2257 49.8813C34.9455 49.8863 34.6671 49.8411 34.4078 49.7486C34.1739 49.6636 33.9638 49.536 33.7916 49.3743C33.6159 49.2065 33.4805 49.01 33.3935 48.7962C33.2982 48.5578 33.2512 48.3069 33.2545 48.0546C33.2506 47.8007 33.3015 47.5483 33.4044 47.3107C33.4997 47.0955 33.6433 46.8989 33.827 46.7326C34.0132 46.5694 34.2359 46.4412 34.4814 46.3558C34.7499 46.2654 35.0359 46.2203 35.3239 46.2232C35.5914 46.2175 35.8575 46.2586 36.1064 46.344C36.3223 46.4254 36.5206 46.5384 36.6926 46.6781L36.5099 46.9008C36.4973 46.9165 36.4816 46.9301 36.4635 46.941C36.442 46.9539 36.4159 46.9598 36.3899 46.9576C36.3616 46.9559 36.3343 46.9478 36.3109 46.9339L36.2127 46.8747L36.0764 46.7989C36.0175 46.7707 35.9565 46.7462 35.8937 46.7255C35.8128 46.7003 35.7299 46.6805 35.6456 46.6662C35.5386 46.6491 35.4299 46.6412 35.3211 46.6425C35.1138 46.6403 34.908 46.6741 34.7159 46.742C34.5367 46.805 34.375 46.9003 34.2415 47.0216C34.1055 47.1507 34.0007 47.3021 33.9334 47.467C33.8566 47.6556 33.8187 47.8545 33.8216 48.0546C33.8183 48.2578 33.8561 48.4598 33.9334 48.6516C33.9999 48.8151 34.1027 48.9656 34.236 49.0947C34.3609 49.215 34.5157 49.309 34.6886 49.3695C34.8666 49.4336 35.0576 49.4659 35.2503 49.4643C35.3615 49.4658 35.4728 49.4594 35.5829 49.4453C35.7627 49.4263 35.9351 49.372 36.0873 49.2866C36.1636 49.2429 36.2356 49.1937 36.3027 49.1397C36.3307 49.1165 36.3676 49.103 36.4063 49.1018Z" />
<path d="M42.7044 48.0537C42.7078 48.3051 42.6579 48.5548 42.5572 48.7905C42.4684 49.0042 42.3284 49.1992 42.1465 49.3625C41.9646 49.5259 41.745 49.6539 41.5021 49.7381C40.9683 49.915 40.3782 49.915 39.8444 49.7381C39.603 49.6526 39.3848 49.5243 39.2037 49.3614C39.0219 49.1951 38.8809 48.9984 38.7893 48.7834C38.5929 48.3062 38.5929 47.7846 38.7893 47.3074C38.8823 47.0922 39.0231 46.895 39.2037 46.727C39.3864 46.5693 39.6045 46.4459 39.8444 46.3646C40.3775 46.1845 40.969 46.1845 41.5021 46.3646C41.7443 46.45 41.9634 46.5783 42.1455 46.7412C42.325 46.9059 42.465 47.1 42.5572 47.3122C42.6582 47.5494 42.7081 47.8008 42.7044 48.0537ZM42.1319 48.0537C42.1362 47.8526 42.1011 47.6523 42.0283 47.4614C41.9672 47.2979 41.8679 47.1471 41.7366 47.0184C41.6087 46.8967 41.4513 46.8012 41.2758 46.7389C40.8879 46.6093 40.4586 46.6093 40.0707 46.7389C39.8952 46.8012 39.7378 46.8967 39.6099 47.0184C39.4768 47.1463 39.3764 47.2973 39.3155 47.4614C39.1768 47.8471 39.1768 48.2603 39.3155 48.646C39.377 48.8098 39.4773 48.9607 39.6099 49.089C39.7379 49.2099 39.8953 49.3046 40.0707 49.3661C40.4593 49.4924 40.8872 49.4924 41.2758 49.3661C41.4512 49.3046 41.6086 49.2099 41.7366 49.089C41.8673 48.96 41.9665 48.8093 42.0283 48.646C42.1015 48.4551 42.1365 48.2548 42.1319 48.0537Z"/>
<path d="M47.0013 48.6746L47.0586 48.8072C47.0804 48.7599 47.0995 48.7172 47.1213 48.6746C47.1421 48.63 47.1657 48.5865 47.1922 48.5443L48.5854 46.3437C48.6127 46.3058 48.6372 46.2821 48.6645 46.275C48.7015 46.2652 48.7403 46.2612 48.779 46.2632H49.1907V49.8424H48.7026V47.2107C48.7026 47.1775 48.7026 47.1396 48.7026 47.0994C48.7 47.0583 48.7 47.0172 48.7026 46.9762L47.3012 49.2076C47.2834 49.241 47.255 49.2692 47.2192 49.289C47.1834 49.3087 47.1418 49.3191 47.0995 49.3189H47.0204C46.9779 49.3194 46.9362 49.3091 46.9004 49.2894C46.8646 49.2696 46.8362 49.2412 46.8186 49.2076L45.3763 46.962C45.3763 47.0046 45.3763 47.0472 45.3763 47.0899C45.3763 47.1325 45.3763 47.1704 45.3763 47.2036V49.8353H44.9047V46.2632H45.3164C45.355 46.2612 45.3938 46.2652 45.4309 46.275C45.4647 46.2896 45.4916 46.3139 45.5072 46.3437L46.9304 48.5467C46.9584 48.5874 46.9821 48.6302 47.0013 48.6746Z"/>
<path d="M52.2444 48.4967V49.8374H51.6991V46.2631H52.9151C53.1446 46.2592 53.3735 46.2856 53.594 46.3412C53.7705 46.3847 53.9341 46.4606 54.0739 46.5639C54.195 46.6607 54.2883 46.7807 54.3465 46.9145C54.4109 47.0603 54.4423 47.2155 54.4392 47.3716C54.4416 47.5284 54.4073 47.6839 54.3383 47.8288C54.2728 47.9659 54.1721 48.0882 54.0439 48.1864C53.904 48.294 53.7395 48.3747 53.5613 48.4233C53.349 48.4822 53.127 48.5103 52.9042 48.5062L52.2444 48.4967ZM52.2444 48.113H52.9042C53.0475 48.1146 53.1902 48.0962 53.3268 48.0585C53.4395 48.0256 53.5433 47.9732 53.6322 47.9046C53.7141 47.839 53.7775 47.758 53.8176 47.6677C53.8622 47.5722 53.8844 47.4699 53.883 47.3669C53.8893 47.2675 53.8707 47.1681 53.8283 47.0757C53.7859 46.9832 53.7208 46.8999 53.6376 46.8315C53.4293 46.6902 53.1677 46.6218 52.9042 46.6397H52.2444V48.113Z" />
<path d="M59.5731 49.8423H59.1423C59.0991 49.8437 59.0566 49.832 59.0223 49.8091C58.9914 49.7868 58.9671 49.7584 58.9514 49.7262L58.5806 48.8615H56.7185L56.334 49.7262C56.3199 49.7578 56.2964 49.7856 56.2659 49.8067C56.2312 49.831 56.1877 49.8436 56.1432 49.8423H55.7124L57.3483 46.2627H57.9154L59.5731 49.8423ZM56.8739 48.5133H58.4116L57.7627 47.0563C57.7131 46.9467 57.6721 46.8343 57.64 46.7199L57.5773 46.9071C57.5582 46.9639 57.5364 47.016 57.5173 47.0587L56.8739 48.5133Z" />
<path d="M61.9288 46.2794C61.9614 46.2949 61.9894 46.3168 62.0106 46.3433L64.3962 49.0416C64.3962 48.9989 64.3962 48.9563 64.3962 48.916C64.3962 48.8758 64.3962 48.8355 64.3962 48.7976V46.2628H64.8843V49.8423H64.6116C64.5729 49.8433 64.5345 49.836 64.4998 49.821C64.4662 49.8039 64.4365 49.7814 64.4126 49.7546L62.0297 47.0587C62.0323 47.0998 62.0323 47.1409 62.0297 47.1819C62.0297 47.2222 62.0297 47.2577 62.0297 47.2909V49.8423H61.5416V46.2628H61.8306C61.8644 46.262 61.8979 46.2676 61.9288 46.2794Z"/>
<path d="M68.9031 48.4193V49.8407H68.3578V48.4193L66.8501 46.2635H67.3381C67.3802 46.2614 67.4218 46.2723 67.4554 46.2943C67.4851 46.3173 67.51 46.3446 67.529 46.3749L68.4724 47.7655C68.5105 47.8247 68.5432 47.8792 68.5705 47.9313C68.5978 47.9834 68.6196 48.0332 68.6387 48.0829L68.7096 47.9289C68.736 47.8726 68.767 47.818 68.8023 47.7655L69.732 46.3654C69.7516 46.3375 69.7754 46.312 69.8029 46.2896C69.8352 46.265 69.8772 46.2523 69.9201 46.2541H70.4136L68.9031 48.4193Z" />
<path d="M46.7314 40.2563C46.9686 40.2823 47.2086 40.3036 47.4512 40.3226C51.1301 38.8927 54.2422 36.5525 56.3987 33.5943C58.5552 30.6362 59.6603 27.1914 59.5759 23.6905L55.5216 20.168C56.346 23.8953 55.9604 27.7483 54.408 31.2961C52.8555 34.8438 50.1976 37.9462 46.7314 40.2563Z" />
<path d="M45.2837 40.0929L45.3928 40.1118C49.0966 37.81 51.9205 34.5957 53.4993 30.8845C55.078 27.1733 55.3389 23.1359 54.2483 19.2945L48.4737 14.2773C50.8094 18.4014 51.7495 23.0168 51.1848 27.5868C50.6201 32.1568 48.5737 36.4936 45.2837 40.0929Z"/>
<path d="M64.868 27.8271C63.8869 31.6737 61.5042 35.1429 58.0736 37.7195C57.0717 38.4761 55.991 39.1502 54.8455 39.733C57.6389 39.0196 60.2065 37.7584 62.3503 36.0466C64.494 34.3347 66.1567 32.218 67.21 29.8596L64.868 27.8271Z" />
<path d="M63.949 27.2604L60.6146 24.3633C60.5508 27.6664 59.47 30.8944 57.4845 33.7117C55.499 36.5291 52.6813 38.833 49.3242 40.3841H49.3406C50.0887 40.3838 50.8362 40.3451 51.579 40.268C54.7164 39.1554 57.488 37.3853 59.6464 35.1156C61.8049 32.8459 63.283 30.1472 63.949 27.2604Z" />
<path d="M45.7663 12.1612L41.7883 8.7002C38.2322 9.89415 35.1738 11.9931 33.0134 14.7223C30.8529 17.4515 29.6912 20.6838 29.6801 23.9961V23.9961C29.6934 27.6562 31.1113 31.2079 33.7093 34.089C36.3073 36.9702 39.9371 39.0162 44.0241 39.9033C47.6725 36.0412 49.8086 31.269 50.1219 26.28C50.4352 21.291 48.9094 16.3452 45.7663 12.1612Z" />
<path d="M73.1401 26.7277C73.1257 22.3852 71.1339 18.2242 67.5997 15.1535C64.0656 12.0829 59.2764 10.3524 54.2784 10.3399C51.9688 10.3378 49.6789 10.7081 47.5249 11.4319L71.8805 32.593C72.7144 30.7225 73.1415 28.7337 73.1401 26.7277Z"/>
</svg>

    
</svg>

